<?xml version="1.0" encoding="UTF-8"?>
<!-- Generator: Adobe Illustrator 26.4.1, SVG Export Plug-In . SVG Version: 6.00 Build 0)  -->
<svg xmlns="http://www.w3.org/2000/svg" xmlns:xlink="http://www.w3.org/1999/xlink" version="1.1" id="Capa_1" x="0px" y="0px" viewBox="0 0 300 83" style="enable-background:new 0 0 300 83;" xml:space="preserve">
<style type="text/css">
	.st0{fill:#262626;}
</style>
<g transform="translate(-58.086 -243.7)">
	<path class="st0" d="M74.3,306.4c0.9,0.2,2.5,0.2,3.7,0.2c9.8,0.1,16.2-5.3,16.2-16.6c0-10.2-5.8-15.1-15.1-15.1   c-2.3,0-3.9,0.2-4.9,0.4V306.4z M63.6,267.8c3.9-0.7,9.1-1.1,14.4-1.1c9.1,0,15,1.5,19.5,4.9c4.9,3.7,8,9.6,8,18   c0,9.1-3.3,15.3-7.8,19.2c-5,4.2-12.6,6.1-21.9,6.1c-5.5,0-9.6-0.3-12.2-0.7L63.6,267.8L63.6,267.8z"></path>
	<path class="st0" d="M141.9,303.4c0,4.5,0.2,8.1,0.3,11h-9.3l-0.5-4.9h-0.2c-1.3,2.1-4.6,5.6-10.7,5.6c-7,0-12.1-4.4-12.1-15v-20.2   h10.7v18.5c0,5,1.6,8,5.4,8c2.9,0,4.7-2,5.3-3.7c0.3-0.6,0.4-1.4,0.4-2.3v-20.5h10.7L141.9,303.4z"></path>
	<path class="st0" d="M163.8,307.6c4.2,0,6.8-4.1,6.8-10.3c0-5.1-2-10.3-6.8-10.3c-5.1,0-7,5.2-7,10.3   C156.8,303.2,159.3,307.6,163.8,307.6L163.8,307.6z M163.6,315.3c-10,0-17.8-6.6-17.8-17.7c0-11.1,7.3-18.2,18.4-18.2   c10.5,0,17.5,7.2,17.5,17.6C181.7,309.5,172.8,315.3,163.6,315.3L163.6,315.3z"></path>
	<path class="st0" d="M213.2,313.6c-1.9,0.9-5.5,1.6-9.6,1.6c-11.1,0-18.2-6.8-18.2-17.6c0-10,6.9-18.3,19.7-18.3   c2.8,0,5.9,0.5,8.1,1.3l-1.7,7.9c-1.3-0.6-3.2-1.1-6-1.1c-5.6,0-9.3,4-9.2,9.6c0,6.3,4.2,9.7,9.4,9.7c2.5,0,4.5-0.4,6.1-1.1   L213.2,313.6z"></path>
	<path class="st0" d="M233.6,270.9v25.3c0,7.6,2.9,11.4,7.9,11.4c5.2,0,8.1-3.6,8.1-11.4v-25.3h9.9v24.6c0,13.6-6.8,20-18.3,20   c-11.1,0-17.6-6.1-17.6-20.1v-24.5L233.6,270.9L233.6,270.9z"></path>
	<path class="st0" d="M298.7,313.5c-1.8,0.9-5.9,1.9-11.3,1.9c-15.2,0-23-9.5-23-22c0-15,10.7-23.3,24-23.3c5.1,0,9.1,1,10.8,1.9   l-2,7.9c-2-0.8-4.8-1.6-8.3-1.6c-7.9,0-14,4.7-14,14.5c0,8.8,5.2,14.3,14.1,14.3c3,0,6.3-0.6,8.3-1.4L298.7,313.5z"></path>
	<path class="st0" d="M310,309.6c4.5,4.9,10.9,7.9,18.1,7.9c7.1,0,13.6-3.1,18.1-7.9h-0.5c-0.2,0.2-0.3,0.3-0.5,0.5   c-4.4,4.4-10.4,7.1-17,7.1c-6.6,0-12.7-2.7-17-7.1c-0.2-0.2-0.3-0.3-0.5-0.5H310z M312.2,309.6   C312.2,309.7,312.2,309.7,312.2,309.6c0.1,0.1,0.1,0.1,0.2,0.1l0-0.1l0,0L312.2,309.6L312.2,309.6z M317.2,309.6c0,0.1,0,0.1,0,0.2   c-0.1,0.1-0.1,0.2-0.5,0.8l-0.4,0.7c-0.2,0.4-0.4,0.7-0.5,0.8c-0.1,0.1-0.2,0.2-0.2,0.2c0,0-0.1,0-0.2-0.1c0,0-0.1,0-0.1,0   c0,0,0,0,0.1,0.1c0.2,0.1,0.4,0.2,0.5,0.3c0.2,0.1,0.5,0.3,0.8,0.5c0.7,0.4,1.3,0.3,1.6,0.3c0.3-0.1,0.8-0.3,1-0.8   c0.3-0.5,0.3-0.9,0.2-1.2c-0.2-0.7-0.8-1-1.3-1.3c-0.2-0.1-0.5-0.3-0.6-0.3c0,0-0.1,0-0.1-0.1L317.2,309.6z M320.3,309.6   c2.3,1.1,5,1.7,7.7,1.7c2.8,0,5.4-0.6,7.7-1.7h-0.9c-1.8,0.7-3.7,1.2-5.7,1.3c-0.5,0-0.9-0.4-0.9-0.8v-0.5h-0.4v0.5   c0,0.5-0.4,0.8-0.8,0.8c-2-0.1-4-0.6-5.7-1.3H320.3z M338.4,309.6c-0.2,0.2-0.7,0.4-0.8,0.5c-0.1,0.1-0.4,0.2-0.6,0.3   c-0.1,0-0.1,0.1-0.1,0.1h0.1c0.1,0,0.1-0.1,0.2-0.1c0.2,0,0.2,0,0.3,0.1c0.1,0.1,0.1,0.2,0.5,0.8l0.4,0.7c0.2,0.4,0.4,0.7,0.4,0.8   c0,0.1,0.1,0.2,0,0.3c0,0-0.1,0.1-0.1,0.1c0,0-0.1,0,0,0.1c0,0,0,0,0.1,0c0.2-0.1,0.4-0.2,0.5-0.3c0.2-0.1,0.5-0.3,1.1-0.6   c0.2-0.1,0.2-0.1,0.2-0.2c0-0.1-0.1-0.4-0.2-0.5l-0.1-0.1c0,0,0,0,0,0.1c0.1,0.2,0.1,0.3,0,0.4c-0.1,0.1-0.2,0.2-0.3,0.2   c-0.4,0.2-0.5,0.2-0.6-0.1c-0.1-0.1-0.3-0.5-0.3-0.6l-0.2-0.3v0c0.1-0.1,0.5-0.3,0.6-0.3c0.2-0.1,0.2,0,0.3,0c0,0,0.1,0.1,0.1,0.1   l0,0v-0.1c0,0-0.1-0.2-0.1-0.3c-0.1-0.2-0.1-0.3-0.1-0.3l0,0c0,0,0,0,0,0.1c0,0-0.1,0.1-0.2,0.2c-0.1,0-0.5,0.3-0.6,0.3l0,0l-0.5-1   v0c0.1,0,0.5-0.3,0.6-0.3c0.2-0.1,0.3-0.1,0.3,0c0,0,0.1,0.1,0.1,0.1l0.1,0l0-0.1c0,0-0.1-0.2-0.1-0.3c0,0,0,0,0,0L338.4,309.6   L338.4,309.6z M318.8,312.4c-0.2,0.4-0.5,0.7-0.9,0.8c-0.3,0.1-0.6,0-1.1-0.2c-0.3-0.2-0.4-0.3-0.4-0.5c0-0.1,0.1-0.2,0.1-0.3   c0-0.1,0.2-0.4,0.4-0.8l0.3-0.5c0.2-0.3,0.4-0.6,0.4-0.8c0,0,0-0.1,0.1,0c0,0,0.2,0.1,0.3,0.1c0.3,0.2,0.7,0.5,0.9,1   C319,311.4,319.1,311.9,318.8,312.4 M322.5,311.8c0,0-0.1,0-0.2,0c-0.1,0-0.9-0.3-1.1-0.4c-0.1,0-0.4-0.1-0.6-0.2   c-0.1,0-0.1,0-0.1,0c0,0,0,0,0.1,0.1c0,0,0.1,0,0.2,0.1c0.1,0.1,0.1,0.2,0.1,0.3c0,0.1-0.1,0.2-0.3,0.9l-0.3,0.7   c-0.1,0.4-0.3,0.7-0.3,0.9c-0.1,0.1-0.1,0.2-0.2,0.2c0,0-0.1,0-0.2,0c-0.1,0-0.1,0-0.1,0c0,0,0,0,0.1,0.1c0.2,0,0.4,0.1,0.5,0.2   c0.2,0.1,0.5,0.2,1.1,0.4c0.2,0.1,0.2,0.1,0.3,0c0-0.1,0.2-0.3,0.2-0.5v-0.1l-0.1,0c-0.1,0.2-0.2,0.2-0.3,0.2c-0.1,0-0.3,0-0.4-0.1   c-0.4-0.2-0.5-0.2-0.4-0.5c0-0.1,0.2-0.5,0.2-0.6l0.1-0.3l0,0c0.1,0,0.5,0.2,0.6,0.2c0.2,0.1,0.2,0.2,0.2,0.3c0,0.1,0,0.1,0,0.2   l0,0l0.1-0.1c0,0,0.1-0.2,0.1-0.3c0.1-0.2,0.1-0.3,0.2-0.3l0,0l-0.1,0c-0.1,0-0.1,0-0.2,0c-0.1,0-0.6-0.2-0.7-0.2l0-0.1l0.4-1.1   l0,0c0.1,0,0.5,0.2,0.6,0.2c0.2,0.1,0.2,0.2,0.2,0.3c0,0,0,0.1,0,0.2l0,0.1l0,0c0-0.1,0.1-0.2,0.1-0.3   C322.5,312,322.5,311.9,322.5,311.8L322.5,311.8L322.5,311.8z M327.6,312.7c-0.1,0-0.3-0.1-0.4-0.1c-0.2,0-0.4-0.1-0.6-0.1   c-0.6-0.1-1.1,0.1-1.5,0.3c-0.5,0.3-0.6,0.9-0.6,1.2c0,0.4,0,1,0.4,1.4c0.4,0.4,0.9,0.6,1.5,0.6c0.3,0,0.6,0,0.8,0   c0.1,0,0.1,0,0.1-0.1c0.1-0.2,0.2-0.5,0.2-0.6l0-0.1c0,0,0,0-0.1,0.1c0,0.1-0.1,0.2-0.2,0.3c-0.2,0.2-0.4,0.2-0.8,0.2   c-0.6,0-1.3-0.6-1.3-1.7c0-0.4,0.2-0.8,0.5-1.1c0.2-0.2,0.5-0.2,0.9-0.2c0.4,0,0.7,0.2,0.9,0.3c0.1,0.1,0.2,0.3,0.1,0.4   c0,0.1,0,0.1,0,0.1c0,0,0,0,0.1-0.1c0-0.1,0-0.3,0.1-0.5C327.6,312.8,327.7,312.8,327.6,312.7C327.7,312.7,327.6,312.7,327.6,312.7    M332.4,315.5c-0.1,0-0.2,0-0.2,0c-0.1,0-0.2-0.1-0.2-0.2c0-0.2-0.1-0.5-0.1-1l-0.1-0.8c-0.1-0.7-0.1-0.8-0.1-0.9   c0-0.2,0-0.2,0.1-0.3c0,0,0.1,0,0.1,0c0,0,0.1,0,0.1,0c0,0,0,0-0.1,0c-0.2,0-0.5,0.1-0.6,0.1c-0.1,0-0.4,0-0.6,0.1   c-0.1,0-0.1,0-0.1,0c0,0,0,0,0.1,0c0.1,0,0.1,0,0.2,0c0.2,0,0.2,0.1,0.2,0.2c0,0.1,0,0.3,0.1,0.9v0.1l0,0l-1.7,0.2l0,0v-0.1   c-0.1-0.7-0.1-0.8-0.1-0.9c0-0.2,0-0.2,0.1-0.3c0,0,0.1,0,0.1,0c0,0,0.1,0,0.1,0c0,0,0,0-0.1,0c-0.2,0-0.5,0.1-0.6,0.1   c-0.1,0-0.4,0-0.6,0.1c-0.1,0-0.1,0-0.1,0c0,0,0,0,0.1,0c0.1,0,0.1,0,0.2,0c0.2,0,0.2,0.1,0.2,0.2c0,0.1,0,0.3,0.1,0.9l0.1,0.8   c0,0.4,0.1,0.8,0.1,1c0,0.1,0,0.2-0.1,0.3c0,0-0.1,0-0.2,0c0,0-0.1,0-0.1,0c0,0,0,0,0.1,0c0.2,0,0.5-0.1,0.6-0.1   c0.1,0,0.4,0,0.7-0.1c0,0,0.1,0,0.1-0.1c0,0,0,0-0.1,0c-0.1,0-0.2,0-0.2,0c-0.1,0-0.2-0.1-0.2-0.2c0-0.2-0.1-0.5-0.2-1l0-0.4l0,0   l1.7-0.2l0,0l0,0.4c0,0.4,0.1,0.8,0.1,1c0,0.1,0,0.2-0.1,0.3c0,0-0.1,0-0.2,0c0,0-0.1,0-0.1,0c0,0,0,0,0.1,0c0.2,0,0.5-0.1,0.6-0.1   c0.1,0,0.4,0,0.7-0.1C332.4,315.6,332.4,315.6,332.4,315.5C332.4,315.5,332.4,315.5,332.4,315.5 M334.8,314.8c-0.1,0-0.2,0-0.2,0   c-0.1,0-0.2,0-0.2-0.2c-0.1-0.2-0.2-0.5-0.3-0.9l-0.2-0.8c-0.2-0.6-0.2-0.8-0.3-0.9c0-0.2,0-0.2,0.1-0.3c0,0,0.1,0,0.1,0l0.1-0.1   c0,0,0,0-0.1,0c-0.2,0-0.4,0.1-0.5,0.2c-0.1,0-0.4,0.1-0.6,0.2c-0.1,0-0.1,0-0.1,0.1l0.1,0c0.1,0,0.1,0,0.2,0   c0.1,0,0.2,0.1,0.2,0.2c0,0.1,0.1,0.3,0.3,0.9l0.2,0.8c0.1,0.4,0.2,0.8,0.2,0.9c0,0.1,0,0.2-0.1,0.2c0,0-0.1,0-0.2,0.1   c0,0-0.1,0-0.1,0c0,0,0,0,0.1,0c0.2,0,0.4-0.2,0.5-0.2C334.3,315,334.5,315,334.8,314.8C334.9,314.9,334.9,314.9,334.8,314.8   C334.9,314.8,334.9,314.8,334.8,314.8 M337.7,313.2C337.7,313.2,337.7,313.1,337.7,313.2L337.7,313.2c-0.1,0.1-0.1,0.2-0.1,0.3   c-0.1,0.2-0.2,0.2-0.5,0.3c-0.3,0.1-0.5,0.1-0.5,0.1c-0.1,0-0.2-0.3-0.4-0.9l-0.3-0.7c-0.2-0.6-0.3-0.7-0.3-0.9   c0-0.2,0-0.2,0.1-0.3c0,0,0.1-0.1,0.2-0.1c0.1,0,0.1,0,0.1-0.1c0,0,0,0-0.1,0c-0.2,0.1-0.5,0.2-0.6,0.2c-0.1,0-0.4,0.1-0.6,0.2   c-0.1,0-0.1,0-0.1,0.1c0,0,0,0,0.1,0c0.1,0,0.1,0,0.2,0c0.2,0,0.2,0,0.3,0.2c0.1,0.1,0.1,0.2,0.3,0.9l0.3,0.7   c0.2,0.4,0.3,0.7,0.3,0.9c0,0.1,0,0.2,0,0.3c0,0-0.1,0-0.2,0.1c0,0-0.1,0,0,0.1c0,0,0,0,0.1,0c0.2-0.1,0.4-0.2,0.5-0.2   c0.3-0.1,0.6-0.2,1.2-0.5c0.2-0.1,0.2-0.1,0.2-0.2C337.8,313.6,337.7,313.2,337.7,313.2"></path>
	<path class="st0" d="M305.1,301.7c1.1,3,2.8,5.7,4.9,7.9h0.5c-2.1-2.3-3.9-5-5-7.9H305.1z M307.5,301.7c-0.2,0.4-0.3,0.8-0.4,0.8   c0,0.1-0.1,0.2-0.1,0.2c0,0,0.1,0,0.2,0l2.5-1c0,0,0.1,0,0.1,0h-0.9l-1,0.5v0c0,0,0.1-0.2,0.2-0.4L307.5,301.7L307.5,301.7z    M310.3,301.7c0,0,0.1,0.1,0.1,0.2l0.1,0c0,0,0,0,0-0.1c0,0,0-0.1,0-0.1L310.3,301.7L310.3,301.7z M312,301.7   c1.9,3.5,4.8,6.3,8.4,7.9h0.9c-2.1-0.9-3.9-2.1-5.5-3.6c-1.3-1.3-2.4-2.7-3.3-4.4L312,301.7z M316.5,301.7c0,0,0,0.1,0,0.1h0   c-0.1,0-0.1,0-0.1,0l0,0c0,0,0,0,0,0.1c0,0.2-0.1,0.7-0.3,2.6v0c0,0.2,0.2,0.4,0.3,0.5c0.2,0.1,0.3,0.2,0.6,0.2h0   c0.2,0,0.4,0,0.5-0.2c0.1-0.1,0.3-0.2,0.3-0.5v0c-0.1-0.6-0.1-1-0.1-1.1c0-0.1,0-0.2,0-0.2v0c0-0.1,0-0.3-0.1-1.3l0-0.1h-0.1v-0.1   h-0.2v0.1h-0.4c0,0,0-0.1,0-0.1H316.5z M320.1,301.7C320.1,301.7,320.1,301.7,320.1,301.7L320.1,301.7l0.2,0.3l0.2,0.4   c0.1,0.2,0.2,0.4,0.4,0.5c0.1,0.1,0.2,0.2,0.3,0.2c-0.1,0.1-0.2,0.2-0.3,0.3c-0.1,0.2-0.2,0.3-0.2,0.5l0,0l0,0.4v0l0.1,0.4l0,0l0,0   c0.1,0.2,0.2,0.3,0.3,0.4c0.1,0.1,0.2,0.2,0.3,0.2l-0.2,0.2l0,0c-0.1,0.1-0.2,0.3-0.2,0.4c0,0.1,0,0.1,0,0.2c0,0.1,0,0.2,0,0.3   c0,0.2,0.1,0.3,0.2,0.4c0.1,0.1,0.1,0.2,0.1,0.2h0l0.1,0.1h0l0.1,0c0,0-0.1,0-0.1,0.1c-0.1,0.1-0.1,0.2-0.1,0.3v0   c0,0.1,0,0.2,0.1,0.3c0.1,0.1,0.2,0.2,0.3,0.2l0.2,0.1l0,0.1l0,0h0v0.3h0.1l0.1,0l0,0l-0.1-0.1l-0.1,0c0,0,0,0.1,0.1,0.1   s0.1,0.2,0.2,0.2c0.1,0,0.2-0.1,0.3-0.2s0-0.1,0-0.2l0-0.4c0.1,0,0.2-0.1,0.3-0.2c0.1-0.1,0.2-0.2,0.2-0.4v0c0-0.1,0-0.3-0.1-0.3   c0.2-0.1,0.3-0.3,0.4-0.5c0.1-0.2,0.1-0.3,0.1-0.5v-0.1c0-0.2,0-0.3-0.1-0.4c-0.1-0.2-0.2-0.3-0.3-0.3l0,0l0,0   c0.1,0,0.1-0.1,0.2-0.1c0.2-0.1,0.3-0.2,0.4-0.4c0.1-0.2,0.1-0.4,0.2-0.6v-0.1c0-0.1,0-0.2,0-0.2c-0.1-0.3-0.2-0.5-0.4-0.7l0.1,0   l0,0l0.3-0.3l0,0l0.3-0.4l0,0c0.1-0.1,0.1-0.2,0.2-0.3c0-0.1,0-0.1,0.1-0.1c0,0,0-0.1,0.1-0.2l0,0l0,0c0-0.1,0-0.1,0.1-0.1l0,0   h-0.2c0,0,0,0,0,0l0,0c-0.1,0.1-0.1,0.2-0.1,0.2c0,0,0,0.1-0.1,0.1c-0.1,0.1-0.1,0.2-0.2,0.3l-0.3,0.3l-0.3,0.3l-0.2,0.1l-0.3-0.2   l0,0v0v-0.1l0.1,0l0,0l0.4-0.3l0.3-0.4l0,0c0-0.1,0.1-0.2,0.1-0.3h-0.2c0,0,0,0.1-0.1,0.2l0,0l-0.2,0.4l-0.3,0.2l0-0.8h-0.2l0,0.9   v0.1v0.2l0,0l-0.2-0.1l-0.4-0.2l0-0.8h-0.2l0,0.8l0,0c0,0,0,0-0.1,0c-0.1,0-0.2-0.1-0.2-0.1s-0.1-0.1-0.2-0.1   c-0.3-0.3-0.3-0.3-0.3-0.5h-0.2c0.2,0.3,0.1,0.2,0.4,0.6c0,0,0.1,0.1,0.1,0.1c0.1,0,0.2,0.1,0.2,0.1l0.1,0.1l0,0v0l0.2,0.1l0.1,0   l0.1,0l0.3,0.1l0.2,0.1l0.1,0.1l0.1,0.1l0,0l0.3,0.2l0,0c0.2,0.2,0.3,0.3,0.4,0.6c0,0.1,0,0.1,0,0.2v0.1c0,0.2,0,0.3-0.1,0.5   c-0.1,0.2-0.2,0.2-0.3,0.3c-0.1,0.1-0.2,0.1-0.3,0.2l-0.1,0l0,0l-0.1,0l-0.1-0.1l-0.1-0.1c0,0,0.1,0,0.1,0c0,0,0.1,0,0.1,0h0   c0,0,0.1,0,0.1,0c0.1-0.1,0.2-0.2,0.3-0.3c0.1-0.1,0.2-0.2,0.2-0.3v0c0-0.2-0.1-0.3-0.2-0.5l0,0c0-0.1-0.1-0.1-0.2-0.2   c0,0,0,0-0.1,0c0,0,0,0,0,0c0,0-0.1,0-0.1-0.1c-0.1,0-0.2-0.1-0.2-0.1c-0.1,0-0.2-0.1-0.3-0.1l0,0l0,0l-0.1,0h0l-0.1,0l-0.4-0.1   l0,0l0,0l0,0c-0.2-0.1-0.3-0.1-0.4-0.2c-0.2-0.2-0.3-0.2-0.4-0.5l-0.2-0.4l-0.2-0.3L320.1,301.7z M327.9,301.7v7.9h0.4v-7.9H327.9z    M329.4,301.7C329.4,301.7,329.4,301.7,329.4,301.7c0.3,0.3,0.7,0.4,1.1,0.4c0.4,0,0.8-0.1,1-0.3c0,0,0,0,0,0h-0.4   c-0.2,0.1-0.5,0.2-0.7,0.2s-0.5-0.1-0.7-0.2H329.4z M332.1,301.7l-1.8,2.8l0,0.1l0,0c0.2,0.2,0.2,0.3,0.2,0.5v0.1   c0,0.2,0,0.2-0.1,0.4l0.1,0.2l2.8,0.5c0.1,0.3,0.3,0.5,0.7,0.5h0.1c0.2,0,0.5-0.1,0.6-0.3l1.1,0.2l0.1,1.1l0,0   c0,0.2,0.1,0.3,0.3,0.3c0.2,0,0.3-0.1,0.3-0.3l0.1-1l1.3,0.3l0.1-0.2l0,0l2.7-3.8l0-0.1c-0.1-0.1-0.1-0.1-0.2-0.3   c0-0.1-0.1-0.2-0.1-0.3c0-0.1,0-0.1,0-0.2l0-0.1l-0.1-0.2c-0.2,0-0.3,0-0.4,0c-0.2,0-0.4,0-0.6-0.1c-0.3-0.1-0.5-0.1-0.8-0.3h0   h-0.4c0.1,0.1,0.2,0.1,0.4,0.2c0.3,0.1,0.5,0.2,0.9,0.3c0.3,0,0.5,0.1,0.7,0.1c0.1,0,0.2,0,0.2,0l-1.3,1.9l-1.2,1.7   c0,0-0.1,0-0.1,0l0,0c0,0,0,0,0,0c-0.2,0-0.3,0-0.4,0l0,0c-0.2,0-0.3,0-0.5-0.1l0.3-4.1h-0.2l-0.3,4v0.1v0.1l0,0.6v0.1v0.1l-0.1,1   c0,0.1,0,0.1-0.1,0.1c0,0-0.1,0-0.1-0.1l0,0l-0.1-1v-0.1v-0.1l0-0.7l0-0.1v-0.1l-0.2-2.6l0-0.3l-0.1-0.8h-0.2l0.1,1.1l-1.5,2.5   c-0.1-0.1-0.2-0.2-0.4-0.3c-0.2-0.2-0.5-0.2-0.7-0.2l0,0l-0.8,0l0,0c0,0-0.1,0-0.2,0c0,0,0,0,0,0c-0.1,0-0.3,0-0.3,0   c0,0-0.1,0-0.1,0c-0.1,0-0.1,0-0.2-0.1c-0.1,0-0.1,0-0.2-0.1c0,0,0,0,0,0l-0.3-0.2l0,0l1.8-2.8L332.1,301.7z M340.4,301.7   C340.4,301.7,340.4,301.7,340.4,301.7c0.3,0.3,0.7,0.4,1.1,0.4c0.4,0,0.8-0.1,1-0.3c0,0,0,0,0,0h-0.4c-0.2,0.1-0.5,0.2-0.7,0.2   s-0.5-0.1-0.7-0.2H340.4z M343.8,301.7c-0.9,1.6-2,3.1-3.3,4.4c-1.6,1.5-3.5,2.8-5.5,3.6h0.9c3.6-1.7,6.5-4.5,8.4-8L343.8,301.7z    M345.5,301.7c0,0.1-0.1,0.2-0.1,0.3c0,0,0,0.1,0,0.1c0,0,0,0,0.1,0c0-0.1,0.1-0.2,0.1-0.2c0.1-0.1,0.2-0.1,0.3-0.1   c0.2,0.1,0.5,0.2,0.9,0.4l0.7,0.3c0.6,0.3,0.7,0.3,0.9,0.4c0.1,0.1,0.2,0.1,0.2,0.3c0,0,0,0.1,0,0.1v0.1c0,0,0,0,0.1-0.1   c0.1-0.2,0.2-0.4,0.2-0.5c0-0.1,0.2-0.4,0.2-0.5c0-0.1,0-0.1,0-0.1l-0.1,0c0,0-0.1,0.1-0.1,0.2c-0.1,0.1-0.2,0.1-0.3,0   c-0.1,0-0.2-0.1-0.9-0.4l-0.6-0.3L345.5,301.7z M350.6,301.7c-1.1,3-2.9,5.7-5,7.9h0.5c2.1-2.3,3.8-5,4.9-7.9H350.6z M312.3,309.7   c0,0-0.1-0.1-0.1-0.1c-0.1-0.1,0-0.2,0-0.3c0.1-0.1,0.2-0.2,0.7-0.7l0.6-0.5c0.3-0.3,0.5-0.5,0.7-0.6c0.1-0.1,0.2-0.1,0.3-0.1   c0,0,0.1,0.1,0.1,0.1l0.1,0l0-0.1c-0.1-0.1-0.3-0.3-0.4-0.4c-0.1-0.1-0.3-0.3-0.5-0.5l-0.1,0l0,0.1c0,0,0.1,0.1,0.2,0.2   c0.1,0.1,0,0.2,0,0.3c-0.1,0.2-0.4,0.4-0.7,0.7l-1.3,1.2l-0.1,0c0,0-0.1-0.1-0.1-0.1c-0.1-0.1-0.2-0.2-0.2-0.4   c0-0.3,0.2-0.6,0.3-0.6c0.3-0.3,0.8-0.3,1-0.1c0.1,0.1,0.1,0.1,0.1,0.1v-0.1l-0.1-0.1c-0.5-0.5-1.1-0.5-1.5,0   c-0.2,0.2-0.2,0.4-0.2,0.5c0,0.1,0,0.4,0.4,0.8c0.2,0.2,0.3,0.3,0.5,0.5C311.9,309.3,312,309.5,312.3,309.7L312.3,309.7   L312.3,309.7z M317.5,309.7c-0.1-0.1-0.3-0.2-0.4-0.3c-0.1,0-0.1,0-0.1,0l0,0.1c0,0,0.1,0.1,0.2,0.1c0,0,0.1,0.1,0.1,0.1   L317.5,309.7L317.5,309.7z M338.9,309.7c-0.1-0.2-0.1-0.2-0.1-0.2l0,0l-0.1,0c0,0-0.1,0.1-0.2,0.1c0,0-0.1,0-0.2,0.1L338.9,309.7   L338.9,309.7z M311.7,303.8c-0.6-1-1.7-1.1-2.5-0.5c-0.9,0.5-1,1.5-0.4,2.4c0.7,1.1,1.8,1,2.5,0.6   C311.9,305.8,312.4,304.9,311.7,303.8 M310.8,305.8c-0.9,0.6-1.5,0.3-1.8-0.2c-0.4-0.6-0.2-1.4,0.6-2c1.1-0.7,1.6-0.2,1.8,0.1   C311.9,304.5,311.6,305.3,310.8,305.8 M346.6,303.4c-0.4-0.2-0.8-0.4-1.4-0.3c-0.5,0.2-0.9,0.5-1.2,1c-0.2,0.2-0.3,0.5-0.3,0.7   c0,0.1,0,0.1,0,0.2c0.1,0.1,0.4,0.4,0.4,0.4h0.1c0,0,0,0,0-0.1c-0.1-0.1-0.2-0.2-0.2-0.3c-0.1-0.3,0-0.5,0.2-0.8   c0.3-0.5,1.2-0.9,2.1-0.3c0.4,0.2,0.7,0.5,0.7,1c0,0.3,0,0.5-0.2,0.8c-0.2,0.3-0.5,0.6-0.7,0.6c-0.2,0-0.3,0-0.4-0.1   c0,0-0.1,0-0.1,0c0,0,0,0.1,0.1,0.1c0.1,0.1,0.3,0.2,0.4,0.3c0.1,0.1,0.2,0.1,0.2,0.2l0.1,0c0.1-0.1,0.2-0.2,0.3-0.3   c0.1-0.2,0.2-0.3,0.4-0.5c0.4-0.6,0.5-1,0.4-1.4C347.2,303.9,346.8,303.6,346.6,303.4 M343.4,305.9c-0.1-0.2-0.2-0.4,0-0.6l0.1-0.1   l0-0.1l-0.1,0c-0.2,0.2-0.3,0.3-0.3,0.4c-0.1,0.1-0.2,0.2-0.3,0.3l0,0.1l0.1,0l0,0c0.1-0.1,0.2-0.1,0.2,0c0,0,0.1,0.1,0.2,0.2   l0.3,0.6v0l-0.7,0.7l-0.1,0l-0.9-0.4c-0.1,0-0.1-0.1,0-0.1l0-0.1c0,0-0.1,0-0.1,0.1c-0.3,0.2-0.5,0.5-0.6,0.6   c-0.1,0.1-0.2,0.2-0.1,0.2l0.1,0c0,0,0.1-0.1,0.2-0.1c0.1,0,0.2-0.1,0.6,0c0.7,0.3,2.5,1,2.7,1.1c0.1,0,0.2,0,0.2,0   c0,0,0-0.1,0-0.2L343.4,305.9z M344,308.1l-1.1-0.5v0l0.6-0.6l0,0L344,308.1L344,308.1L344,308.1z M335.4,303.2l0.2,2.2   c-0.2-0.2-0.5-0.2-0.8-0.2c-0.1,0-0.1,0-0.2,0c-0.2,0-0.3,0.1-0.4,0.1L335.4,303.2z M334.5,306.1l-0.1,0c-0.1,0.2-0.3,0.3-0.5,0.3   h0c-0.3,0-0.5-0.2-0.5-0.4l-0.1-0.1l-2.7-0.5c0-0.1,0-0.2,0.1-0.3V305c0-0.1,0-0.2,0-0.3l0.2,0.1c0,0,0.2,0.1,0.4,0.2   c0.1,0,0.1,0,0.1,0c0.1,0,0.2,0,0.3,0c0.2,0,0.3,0,0.3,0l0,0l0.8,0c0.3,0,0.4,0.1,0.6,0.2c0.2,0.1,0.3,0.2,0.4,0.4l0.2,0   c0.2-0.2,0.4-0.3,0.7-0.3c0.1,0,0.1,0,0.2,0c0.3,0,0.5,0.1,0.7,0.2l0,0c0,0,0,0,0.1,0l0,0.8L334.5,306.1z M336.4,306.5l0-0.6   c0.2,0,0.3,0.1,0.5,0.1c0.1,0,0.3,0,0.4,0h0c0,0.1,0,0.2,0,0.4v0.1v0c0,0,0,0.1,0,0.1v0c0,0.1,0.1,0.2,0.1,0.2L336.4,306.5z    M340,302.5c0,0.1,0,0.2,0.1,0.3c0,0.1,0.1,0.2,0.2,0.3l-2.6,3.7l0,0c0,0-0.1-0.1-0.1-0.2c0,0,0-0.1,0-0.1v-0.1l0,0   c0-0.1,0-0.2,0-0.3c0-0.1,0-0.1,0-0.2l0.2-0.2L340,302.5L340,302.5L340,302.5z M317.2,302c0.1,0.6,0.1,0.9,0.1,1.1   c0,0.1,0,0.2,0,0.2l0,0l0,0l0,0l0,0c0,0,0,0.3,0.1,1.3v0c0,0.1-0.1,0.2-0.2,0.3c-0.1,0.1-0.2,0.1-0.4,0.2c-0.2,0-0.3,0-0.5-0.2   c-0.1-0.1-0.2-0.2-0.2-0.3v0c0.1-1.3,0.2-2,0.2-2.3c0-0.1,0-0.2,0-0.2H317.2z M321.9,307.8L321.9,307.8L321.9,307.8   c-0.1,0-0.1,0-0.2-0.1c0,0,0-0.1,0-0.2v0c0-0.1,0-0.1,0-0.2c0,0,0.1-0.1,0.2-0.1l0.2,0v0.1l0,0.5L321.9,307.8z M322.5,308.5   L322.5,308.5L322.5,308.5c0,0.1,0,0.1-0.1,0.1l-0.1,0l0,0v0l0,0v-0.3v0l0-0.7c0,0,0.1,0,0.1,0c0.1,0,0.1,0,0.2,0L322.5,308.5z    M323,307.5L323,307.5c0,0.1,0,0.2-0.2,0.3c-0.1,0.1-0.1,0.1-0.2,0.1v-0.2c0-0.1,0-0.1,0-0.2l0,0c0,0,0,0,0,0c0,0,0-0.1,0-0.1   c0,0,0,0,0,0c0,0-0.1,0-0.1,0h0l-0.1,0c-0.1,0-0.1,0-0.2-0.1c0,0-0.1,0-0.1,0s-0.1,0-0.1,0l0,0l-0.4-0.1l-0.1-0.1l0,0l-0.1-0.1   c-0.1-0.1-0.1-0.2-0.2-0.3c0-0.1,0-0.2,0-0.2c0,0,0-0.1,0-0.1c0-0.2,0.1-0.2,0.2-0.3l0.3-0.2l0.2,0.1l0.2,0.1l0,0h0l0,0   c0,0-0.1,0-0.1,0.1c0,0-0.1,0-0.1,0.1c-0.1,0.1-0.2,0.2-0.2,0.3c0,0.1,0,0.1,0,0.2s0,0.1,0,0.2c0,0.1,0.1,0.2,0.2,0.2   c0,0,0.1,0.1,0.1,0.1c0,0,0,0,0,0c0,0,0,0,0.1,0c0,0,0.1,0,0.1,0c0,0,0.1,0,0.1,0h0l0,0l0,0c0,0,0.1,0,0.2,0.1c0,0,0.1,0,0.1,0l0,0   c0,0,0,0,0.1,0c0,0,0,0,0,0c0,0,0.1,0,0.1,0l0.1,0l0,0l0,0C323,307.3,323,307.4,323,307.5L323,307.5z M322,306.5   C322,306.5,322,306.5,322,306.5c-0.1,0-0.1-0.1-0.1-0.1c0,0,0-0.1,0-0.1c0,0,0-0.1,0-0.1c0-0.1,0-0.1,0.1-0.2L322,306.5z    M322.2,305.9c0,0,0.1,0,0.1-0.1l0.2,0.1l0,0.6l-0.2,0.2c0,0-0.1,0-0.1,0L322.2,305.9z M323.3,305.8c0.1,0.1,0.1,0.2,0.1,0.3v0.1   c0,0.2,0,0.2-0.1,0.4c-0.1,0.2-0.2,0.3-0.3,0.4c-0.1,0-0.1-0.1-0.2-0.1l0,0l0,0l0,0h0l-0.1,0l-0.1,0c0,0,0,0,0,0l0.1-0.1l0.1-0.1   l0.1-0.1v0l0,0c0.1-0.1,0.2-0.2,0.2-0.3v-0.1l0,0c0-0.1-0.1-0.2-0.2-0.3c0,0-0.1,0-0.1-0.1c0,0-0.1,0-0.1,0l0,0l0,0l-0.1,0   l-0.3-0.2l0,0l-0.1,0l-0.1,0h0h0l-0.1,0l-0.2-0.1l-0.1-0.1l0,0c0,0,0,0-0.1-0.1c-0.1,0-0.2-0.1-0.2-0.2c-0.1-0.1-0.2-0.2-0.3-0.3   l-0.1-0.4l0-0.4l0,0c0.1-0.2,0.1-0.2,0.2-0.4c0.1-0.2,0.2-0.2,0.4-0.3l0,0l0.4,0.1l0,0c0,0.1,0,0.2,0,0.3l0,0   c-0.1,0-0.1,0.1-0.1,0.1c-0.1,0.1-0.2,0.2-0.2,0.3c0,0.1,0,0.1,0,0.2v0.1c0,0.1,0.1,0.2,0.2,0.3c0.1,0.1,0.2,0.2,0.3,0.2   c0,0,0,0,0,0l0,0c0,0,0,0,0,0c0,0,0.1,0,0.1,0.1c0,0,0.1,0,0.1,0.1c0,0,0,0,0,0l0,0l0.3,0.2l0.1,0l0,0l0,0l0.1,0l0.1,0l0.2,0.1   C323.2,305.6,323.3,305.7,323.3,305.8 M322.7,306.4v-0.3c0,0,0,0.1,0,0.1v0C322.8,306.3,322.8,306.3,322.7,306.4 M321.9,303.9   l0,0.8c0,0-0.1-0.1-0.1-0.1c-0.1-0.1-0.1-0.1-0.1-0.2v0c0,0,0-0.1,0-0.2C321.8,304.1,321.8,304,321.9,303.9 M322.1,303.4   c0.1,0,0.1,0,0.2,0.1c0.1,0.1,0.2,0.1,0.3,0.2l0,1c-0.1,0-0.2,0.1-0.3,0.1c0,0-0.1,0-0.1-0.1l0-1.1v-0.1   C322.1,303.6,322.1,303.5,322.1,303.4 M322.8,304.6l0-0.8c0,0,0,0,0,0c0.1,0.1,0.1,0.2,0.2,0.4v0c0,0.1,0,0.1-0.1,0.2   C322.9,304.5,322.9,304.6,322.8,304.6"></path>
	<path class="st0" d="M304,297.7c0.3,1.4,0.6,2.7,1.1,4h0.4c-0.5-1.3-0.9-2.6-1.1-4H304z M305.6,297.7l0,0.1c0,0.2,0,0.3,0.1,0.4   c0,0.1,0,0.2,0,0.2c0,0,0,0,0.1,0c0,0,0.5,0,0.5,0c0,0,0.1,0,0.1-0.1l-0.1,0c0,0-0.1,0-0.2,0c-0.1,0-0.2-0.2-0.2-0.4l0-0.3   L305.6,297.7z M310.4,297.7c0.4,1.4,0.9,2.7,1.6,4h0.4c-0.7-1.2-1.2-2.6-1.6-4H310.4z M312.4,297.7l0.6,0.3v0.1c0,0.2,0,0.3,0,0.5   l0,0c0,0.2,0.1,0.3,0.2,0.5c0,0.1,0,0.1,0.1,0.2c0.1,0.1,0.1,0.2,0.2,0.3c0.1,0.1,0.2,0.2,0.3,0.3l0,0c0.1,0.1,0.2,0.1,0.3,0.2l0,0   c0.1,0.1,0.2,0.2,0.3,0.2c0.2,0.1,0.2,0.2,0.4,0.2c0.1,0.1,0.2,0.1,0.3,0.2c0.1,0,0.2,0.1,0.3,0.1c0.1,0,0.2,0.1,0.3,0.1   c0.1,0,0.2,0,0.3,0.1l0.2,0.1c0.1,0.1,0.2,0.2,0.2,0.2v0.2v0c0,0,0,0,0,0.1h0.2l0,0v0v-0.3c0-0.2-0.1-0.3-0.3-0.4l0,0l-0.3-0.1l0,0   l0,0c-0.1,0-0.2,0-0.3-0.1c-0.1,0-0.2-0.1-0.3-0.1c-0.1,0-0.2-0.1-0.3-0.1c-0.1,0-0.2-0.1-0.3-0.2c-0.2-0.1-0.2-0.1-0.4-0.2   c-0.1-0.1-0.2-0.1-0.3-0.2c-0.1-0.1-0.2-0.1-0.3-0.2c-0.1-0.1-0.2-0.2-0.2-0.3c-0.1-0.1-0.1-0.2-0.2-0.3c0-0.1-0.1-0.1-0.1-0.2   c-0.1-0.2-0.1-0.3-0.2-0.5l0,0c0-0.2,0-0.2,0-0.4v0c0-0.1,0-0.1,0-0.2c0-0.1,0-0.2,0-0.2h-0.2c0,0,0,0.1,0,0.1l-0.2-0.1   L312.4,297.7L312.4,297.7z M314.4,297.7c0,0.2,0,0.3,0,0.4v0.1c0,0.1,0,0.2,0,0.3c0,0.1,0,0.2,0.1,0.3c0,0,0,0,0,0.1   c0.1,0.2,0.1,0.2,0.2,0.3c0,0.1,0.1,0.2,0.2,0.3c0.2,0.2,0.3,0.3,0.5,0.4c0.1,0.1,0.2,0.2,0.3,0.2l0,0l0.6,0.2l0.5,0.2l0,0   c0.1,0,0.2,0,0.2,0.1c0,0,0.1,0,0.2,0.1c0,0,0.1,0.2,0.1,0.3v0.6h0.2V301l0,0c0-0.2-0.1-0.4-0.2-0.5c-0.1-0.1-0.1-0.1-0.2-0.1v-0.3   c0.1,0,0.2,0,0.3,0c0.2,0,0.3,0,0.5-0.1c0.3-0.1,0.5-0.3,0.5-0.6l1.6-0.9c0,0.2-0.1,0.4-0.1,0.7h-0.3v0.7h2.4l0.1,1.7h0.2l0-1.7   l0,0h0.8l0,0l-0.1,1.7h0.2l0.1-1.7h2.3v-0.7H325c0-0.4-0.1-0.7-0.2-1c0-0.1,0-0.1,0-0.2l0,0h0c0.2,0,0.4-0.1,0.4-0.3h-0.2   c0,0.1-0.1,0.1-0.2,0.1H324v0.2h0.6c0,0.1-0.1,0.2-0.2,0.2h-0.8v0.2h0.8c0.1,0,0.2,0,0.2-0.1c0.1,0.3,0.2,0.6,0.2,0.9H320   c0-0.3,0.1-0.6,0.2-0.9c0.1,0,0.1,0,0.2,0h0.8v-0.2h-0.8c-0.1,0-0.1,0-0.2-0.1v0c0,0,0,0,0,0c0,0,0-0.1,0-0.1h0.6v-0.2h-0.9   c-0.1,0-0.2,0-0.2-0.1h-0.2c0,0.2,0.2,0.3,0.4,0.3h0c0,0,0,0,0,0v0c0,0,0,0,0,0c0,0,0,0.1,0.1,0.1c0,0,0,0,0,0.1l-1.7,1   c-0.1,0-0.2-0.1-0.3-0.1c0.2-0.2,0.3-0.4,0.3-0.7l0,0l1.1-0.8H319l-0.9,0.6v0c-0.1,0-0.1,0-0.2,0c0,0,0,0-0.1,0   c0.2-0.2,0.2-0.4,0.2-0.6h-0.2c0,0.3-0.1,0.5-0.3,0.6c-0.2,0.1-0.3,0.2-0.5,0.2c0,0,0-0.1,0-0.1c0-0.2,0-0.3,0.2-0.4   c0-0.1,0.1-0.1,0.2-0.2c0,0,0.1,0,0.1-0.1c0,0,0,0,0.1,0h-0.4c0,0-0.1,0-0.1,0v0h-0.3v0c0,0-0.1,0-0.1,0h-0.4h0   c0.1,0,0.1,0.1,0.2,0.1c0,0,0.1,0.1,0.1,0.1c0.1,0.2,0.2,0.3,0.2,0.4c0,0,0,0.1,0,0.1c-0.2,0-0.3-0.1-0.4-0.2   c-0.2-0.2-0.3-0.4-0.3-0.6h-0.2c0,0.2,0.1,0.5,0.2,0.6c0,0,0,0-0.1,0c-0.1,0-0.2,0-0.3,0l0,0l-0.9-0.6L314.4,297.7z M321,297.9h0.2   v-0.2H321V297.9z M323.5,297.9h0.2v-0.2h-0.2V297.9z M327.9,301.7h0.4v-4h-0.4V301.7z M330.3,297.7l-1.3,2.9h0v0.1   c0,0.4,0.2,0.7,0.4,0.9h0.4c-0.1,0-0.2-0.1-0.2-0.1c-0.2-0.2-0.3-0.4-0.4-0.7h2.6c0,0.3-0.2,0.5-0.4,0.7c-0.1,0-0.1,0.1-0.2,0.1   h0.4c0.3-0.2,0.4-0.5,0.4-0.9v0l0,0l0,0v-0.1h0l-1.3-2.9h-0.2l0,0h0l0,0L330.3,297.7z M335,297.7l0.2,3.3c-0.2,0-0.3,0-0.5,0h-0.1   c-0.4,0-0.6,0-0.9-0.1c-0.4-0.1-0.6-0.2-0.9-0.4l-0.1,0l-0.7,1.1h0.2l0.6-0.9c0.3,0.2,0.5,0.3,0.8,0.3c0.4,0.1,0.6,0.1,1,0.1h0.1   c0.2,0,0.3,0,0.5,0l0,0.5h0.2l0-0.5v-0.1V301l-0.2-3.3H335z M336.8,297.7l-0.3,3.7v0.1v0.1v0h0.2v-0.2c0,0,0,0,0.1,0   c0.1,0,0.2,0,0.5,0c0.2,0,0.3,0.1,0.4,0.1c0,0,0.1,0,0.1,0.1h0.4c-0.2-0.1-0.3-0.2-0.4-0.2c-0.2-0.1-0.3-0.2-0.5-0.2   c-0.2,0-0.3,0-0.5,0c0,0,0,0-0.1,0l0.3-3.6L336.8,297.7z M341.2,297.7l-1.2,2.9h-0.1v0.1c0,0.4,0.2,0.7,0.4,0.9h0.4   c-0.1,0-0.2-0.1-0.2-0.1c-0.2-0.2-0.4-0.4-0.4-0.7h2.6c0,0.3-0.2,0.5-0.4,0.7c-0.1,0-0.1,0.1-0.2,0.1h0.4c0.3-0.2,0.4-0.5,0.4-0.9   v-0.1h0l-1.2-2.9h-0.2l0,0l0,0l0,0L341.2,297.7L341.2,297.7z M345.3,297.7c-0.4,1.4-0.9,2.7-1.6,4h0.4c0.7-1.2,1.2-2.6,1.6-4   L345.3,297.7z M348.2,297.7c0.2,0.1,0.4,0.1,0.6,0.2c0.4,0.1,0.8,0,1.1-0.2L348.2,297.7z M351.7,297.7c-0.3,1.4-0.6,2.7-1.1,4h0.4   c0.5-1.3,0.8-2.6,1.1-4L351.7,297.7L351.7,297.7z M308.1,301.7c0.1-0.3,0.3-0.6,0.4-1c0.2-0.6,0.6-1.3,0.7-1.7c0-0.1,0-0.1,0-0.2   c0,0-0.1,0-0.2,0l-2.6,1c-0.2,0.1-0.3,0.1-0.4,0c0,0,0-0.1-0.1-0.1c0,0,0-0.1-0.1-0.1c0,0,0,0.1,0,0.1c0.1,0.2,0.2,0.3,0.2,0.4   c0,0.1,0.1,0.3,0.2,0.5c0,0.1,0,0.1,0.1,0.1c0,0,0,0,0-0.1c0-0.1-0.1-0.2-0.1-0.2c0-0.1,0.1-0.2,0.3-0.3l1.8-0.8v0   c0,0.1-0.4,0.9-0.6,1.3c-0.2,0.3-0.3,0.7-0.4,1L308.1,301.7L308.1,301.7z M309.8,301.7c0.3-0.1,0.4-0.1,0.4,0c0,0,0,0,0,0h0.1   c-0.1-0.2-0.2-0.3-0.2-0.3c0-0.1-0.1-0.2-0.2-0.5c0-0.1,0-0.1-0.1-0.1c0,0,0,0,0,0.1c0,0.1,0,0.2,0.1,0.2c0,0.1-0.1,0.2-0.4,0.3   l-0.7,0.3L309.8,301.7L309.8,301.7z M320.4,301.7L320.4,301.7L320.4,301.7c-0.2-0.3-0.3-0.4-0.5-0.5c-0.1,0-0.1,0-0.2,0   c-0.1,0-0.2,0-0.3,0.1c-0.1,0-0.1,0-0.2,0h-0.1c-0.2,0-0.2,0-0.3-0.1l-0.2-0.2l0-0.1c0.1-0.2,0.2-0.3,0.5-0.3c0.1,0,0.2,0,0.3,0   c0.1,0,0.2,0,0.3,0l0,0l0.4,0.2c0.1,0.1,0.3,0.2,0.4,0.3c0,0,0.1,0.1,0.2,0.2l0.1,0.1l0,0l0,0l0,0c0.1,0.2,0.2,0.3,0.2,0.4h0.2   c0-0.1-0.1-0.2-0.3-0.5l0,0c0,0-0.1-0.1-0.1-0.1c0,0-0.1-0.1-0.1-0.1c-0.1-0.1-0.3-0.2-0.4-0.3l0,0l-0.4-0.2l0,0   c-0.1,0-0.2-0.1-0.3-0.1s-0.2,0-0.3,0c-0.3,0.1-0.4,0.2-0.6,0.4h0l-0.3,0.1h-0.2l0.2,0.2l0,0h0.1l0.3,0.1h0l0.2,0.2l0,0l0,0   c0.1,0.1,0.2,0.1,0.4,0.2h0.1c0.1,0,0.1,0,0.2,0h0h0c0.1,0,0.2-0.1,0.2-0.1c0,0,0.1,0,0.1,0c0.2,0,0.3,0.1,0.3,0.3L320.4,301.7z    M323.7,301.7L323.7,301.7c0.1-0.2,0.2-0.3,0.3-0.4c0.1-0.1,0.2-0.2,0.3-0.3c0.2-0.1,0.2-0.2,0.4-0.2c0.2-0.1,0.2-0.1,0.4-0.1l0,0   l0,0c0.1,0,0.2,0,0.3,0h0.1c0.2,0,0.2,0,0.4,0.1l0,0l0.3,0.2l0,0.1l-0.2,0.2l-0.2,0.1c-0.1,0-0.2,0-0.2,0c0,0-0.1,0-0.2,0   c0,0-0.1,0-0.1,0c0,0-0.1,0-0.2,0h0c-0.2,0-0.3,0.1-0.4,0.2c-0.1,0.1-0.1,0.1-0.1,0.2c0,0,0,0.1-0.1,0.1h0.2c0,0,0.1-0.1,0.1-0.1   c0.1-0.1,0.2-0.2,0.3-0.2l0,0l0.1,0c0,0,0.1,0,0.2,0c0.1,0,0.1,0,0.2,0c0.1,0,0.2,0,0.3,0h0l0.3-0.2l0.3-0.2l0.3-0.1h0.1l0.2-0.1   l0.1-0.1h-0.2l-0.3-0.2l0,0l0,0l0,0l-0.3-0.2l0,0c-0.2-0.1-0.3-0.1-0.5-0.2h-0.1c-0.1,0-0.2,0-0.3,0l0,0c-0.2,0-0.3,0.1-0.4,0.1   c-0.2,0.1-0.3,0.1-0.5,0.2l0,0l0,0c-0.2,0.1-0.3,0.2-0.4,0.3s-0.2,0.3-0.3,0.4c0,0,0,0.1-0.1,0.1L323.7,301.7z M347.1,301.7   l-0.2-0.1c-0.4-0.2-0.7-0.3-0.9-0.4c-0.1-0.1-0.2-0.1-0.2-0.2c0,0,0-0.1,0-0.2c0,0,0-0.1,0-0.1c0,0,0,0-0.1,0.1   c-0.1,0.2-0.2,0.4-0.2,0.5c0,0.1-0.1,0.2-0.2,0.3L347.1,301.7L347.1,301.7z M350,299.2C350,299.2,350,299.3,350,299.2   c-0.1,0.1-0.1,0.2-0.1,0.2c-0.1,0.1-0.2,0.2-0.3,0.1c-0.1,0-0.3-0.1-0.9-0.3L348,299c-0.4-0.1-0.7-0.2-0.9-0.3   c-0.1-0.1-0.2-0.1-0.2-0.2c0,0,0-0.1,0-0.2c0,0,0-0.1,0-0.1c0,0,0,0-0.1,0.1c-0.1,0.2-0.2,0.4-0.2,0.5c-0.1,0.3-0.2,0.6-0.5,1.2   c-0.1,0.2-0.1,0.2,0,0.3c0.1,0.1,0.4,0.2,0.5,0.2c0,0,0.1,0,0.1,0l0-0.1c-0.1,0-0.2-0.1-0.2-0.2c-0.1-0.2,0-0.3,0-0.5   c0.1-0.3,0.2-0.4,0.3-0.5c0.1-0.1,0.4,0,0.9,0.2l0.7,0.3c0.6,0.2,0.8,0.3,0.9,0.3c0.2,0.1,0.2,0.1,0.2,0.2c0,0.1,0,0.1,0,0.2   c0,0,0,0.1,0,0.1c0,0,0,0,0.1-0.1c0.1-0.2,0.2-0.5,0.2-0.6C349.7,299.8,349.9,299.5,350,299.2C350,299.3,350,299.2,350,299.2    M341.6,297.9l1.1,2.7h-1.1V297.9z M330.4,297.9v2.7h-1.1L330.4,297.9z M330.6,297.9l1.2,2.7h-1.2V297.9z M341.4,297.9v2.7h-1.1   L341.4,297.9z M317.8,298.5c0,0,0.1,0,0.1,0c0,0.3-0.2,0.5-0.4,0.6c-0.2,0.1-0.3,0.2-0.5,0.2c0,0,0,0-0.1,0c0-0.2,0.1-0.3,0.2-0.5   C317.4,298.6,317.6,298.5,317.8,298.5 M317,298.7c0,0,0,0.1-0.1,0.1L317,298.7C317,298.7,317,298.7,317,298.7 M316.3,300.2   l-0.6-0.2l0,0c-0.1-0.1-0.2-0.1-0.3-0.2c-0.2-0.1-0.3-0.2-0.4-0.4c-0.1-0.1-0.1-0.2-0.2-0.2c0,0,0-0.1-0.1-0.1l0.7,0.4l0,0   c0.1,0.3,0.3,0.5,0.6,0.6c0.2,0.1,0.3,0.1,0.5,0.1c0.1,0,0.2,0,0.3-0.1v0.3c0,0,0,0,0,0L316.3,300.2z M316.2,299.2   c-0.2-0.2-0.3-0.3-0.4-0.6c0,0,0.1,0,0.1,0c0.2,0,0.4,0.1,0.6,0.3c0.2,0.2,0.2,0.3,0.2,0.5c0,0,0,0-0.1,0   C316.5,299.3,316.4,299.3,316.2,299.2 M316.7,299.9c-0.1,0-0.2,0-0.3,0.1c-0.1,0-0.2,0-0.4-0.1c-0.2-0.1-0.3-0.2-0.4-0.5   c0.1,0,0.2,0,0.3,0c0.1,0,0.3,0,0.4,0.1C316.6,299.6,316.7,299.7,316.7,299.9 M315.6,298.5L315.6,298.5c0,0.3,0.1,0.5,0.3,0.6   c-0.1,0-0.2,0-0.4,0.1l-1-0.5c-0.1-0.2-0.1-0.3-0.1-0.5v-0.1c0-0.1,0-0.2,0-0.3L315.6,298.5z M316.7,299.5   C316.7,299.5,316.8,299.5,316.7,299.5L316.7,299.5C316.8,299.5,316.7,299.5,316.7,299.5 M316.7,298.7   C316.7,298.7,316.8,298.7,316.7,298.7L316.7,298.7C316.8,298.8,316.7,298.8,316.7,298.7 M317,299.5C317,299.5,317,299.5,317,299.5   C317,299.5,317,299.5,317,299.5L317,299.5z M317.7,299.9c-0.1,0.1-0.3,0.1-0.4,0.1c-0.1,0-0.2,0-0.3-0.1c0.1-0.2,0.2-0.3,0.4-0.4   c0.2-0.1,0.3-0.1,0.4-0.1c0.1,0,0.2,0,0.3,0C318,299.6,317.9,299.8,317.7,299.9 M321.8,299.8h-2.2v-0.3h5.5v0.3H321.8z    M325.5,300.7l-0.1,0.1l0,0l0,0l0.1,0.1l0,0l0.1-0.1l0,0L325.5,300.7z M319.1,300.7l-0.1,0.1l0,0l0,0l0.1,0.1l0,0l0.1-0.1l0,0   L319.1,300.7L319.1,300.7z"></path>
	<path class="st0" d="M303.6,293.7c0,1.4,0.2,2.7,0.4,4h0.4c-0.3-1.3-0.4-2.6-0.4-4H303.6z M305.1,293.7c0,0.1,0,0.2,0,0.3   c0,0.1,0,0.4,0,0.6c0,0.1,0,0.1,0,0.1c0,0,0,0,0-0.1c0-0.1,0-0.1,0-0.2c0-0.1,0.1-0.2,0.2-0.2c0.2,0,0.3,0,1,0l0.8,0   c0.4,0,0.8,0,1,0c0.1,0,0.2,0,0.2,0.1c0,0,0,0.1,0,0.2c0,0.1,0,0.1,0,0.1c0,0,0,0,0-0.1c0-0.2,0-0.5,0-0.6c0,0,0-0.1,0-0.2h-2.3   c-0.5,0-0.6,0-0.7,0c-0.1,0-0.1,0-0.2,0L305.1,293.7L305.1,293.7z M309.8,293.7c0,1.4,0.2,2.7,0.6,4h0.4c-0.3-1.1-0.5-2.3-0.6-3.5   c0-0.2,0-0.3,0.1-0.4L309.8,293.7z M327.7,293.7c0.1,0.1,0.1,0.3,0.1,0.4v3.6h0.4v-3.6c0-0.2,0-0.3,0.1-0.4H327.7z M345.8,293.7   c0.1,0.1,0.1,0.3,0.1,0.4c-0.1,1.2-0.3,2.4-0.6,3.5h0.4c0.3-1.3,0.5-2.6,0.6-4L345.8,293.7z M350.2,293.7   C350.2,293.7,350.2,293.7,350.2,293.7c0.2,0,0.5,0,0.6,0c0,0,0.1,0,0.1,0H350.2z M352.2,293.7c0,1.4-0.2,2.7-0.4,4h0.4   c0.2-1.3,0.4-2.6,0.4-4H352.2z M305.8,297.7l-0.1-0.4l1.8-0.3c0.4-0.1,0.8-0.1,0.9-0.1c0.1,0,0.2,0,0.3,0.1c0,0,0,0.1,0,0.2   c0,0,0,0.1,0,0.1c0,0,0,0,0-0.1c0-0.2-0.1-0.5-0.1-0.6c0-0.1-0.1-0.4-0.1-0.7c0,0,0-0.1-0.1-0.1c0,0,0,0,0,0.1c0,0.1,0,0.2,0,0.2   c0,0.1-0.1,0.2-0.2,0.2c-0.2,0.1-0.5,0.1-1,0.2l-1.8,0.3l-0.1-0.6c-0.1-0.4,0-0.5,0.2-0.6l0,0c0.1,0,0.1,0,0.1-0.1c0,0,0,0-0.1,0   c-0.1,0-0.4,0.1-0.5,0.1c-0.1,0-0.1,0-0.1,0c0,0,0.1,0.1,0.1,0.4l0.3,1.6L305.8,297.7L305.8,297.7z M312.8,297.7l-1.1-0.6l-0.1,0.2   l0.8,0.5L312.8,297.7L312.8,297.7z M313.3,297.7c0,0,0-0.1,0-0.1c0-0.2,0.1-0.3,0.2-0.5c0,0,0,0,0-0.1c0-0.1,0.1-0.1,0.1-0.2   c0-0.1,0.1-0.1,0.1-0.2c0.1-0.1,0.1-0.2,0.2-0.3c0.1-0.1,0.2-0.2,0.3-0.3c0,0,0,0,0,0c0.1,0,0.1-0.1,0.2-0.1c0.1,0,0.1-0.1,0.2-0.1   l0,0c0.2-0.1,0.3-0.2,0.5-0.2c0.1,0,0.2-0.1,0.3-0.1c0.1,0,0.1,0,0.2,0h0c0.2,0,0.3-0.1,0.4-0.1c0.1,0,0.2,0,0.3,0c0,0,0.1,0,0.2,0   c0.2,0,0.3,0,0.6,0.1c0.2,0,0.3,0.1,0.5,0.2c0.1,0,0.2,0.1,0.3,0.1c0,0,0.1,0.1,0.2,0.1h0c-0.1,0-0.1,0-0.2,0h0l-0.4-0.1l0,0h-0.4   l0,0l-0.5,0l0,0l-0.4,0.1l0,0l-0.2,0.1l-0.2,0.1l0,0l0,0l-0.3,0.2l0,0l-0.3,0.3l-0.1,0.1l-0.1,0.1l-0.2,0.2l0,0l-0.2,0.3l0,0   l-0.1,0.2l0,0.2l0,0v0h0.4l-0.2-0.1l0.1-0.2l0.2-0.3l0.2-0.2l0.7,0.8l0,0v0v0h0.2v-0.1h0c0.1,0,0.2,0,0.3,0h0.4c0,0,0,0,0,0   c-0.1-0.1-0.1-0.1-0.2-0.1c0,0-0.1-0.1-0.1-0.1c-0.2-0.2-0.2-0.3-0.2-0.5c0-0.1,0-0.2,0-0.2c0.3,0.1,0.4,0.2,0.5,0.5   c0.1,0.2,0.1,0.3,0.1,0.4c0,0,0,0.1,0,0.1h0.3c0,0,0-0.1,0-0.1c0-0.1,0-0.2,0.1-0.4c0.1-0.2,0.3-0.4,0.5-0.5c0,0.1,0,0.2,0,0.2   c0,0.2-0.1,0.3-0.2,0.5c0,0-0.1,0.1-0.1,0.1c0,0-0.1,0-0.1,0.1c0,0-0.1,0-0.1,0h0.4c0.1,0,0.2-0.1,0.3-0.1h0v0h0.2v0v-0.1l0,0   l2.4-2.6l-0.2-0.1l-2.4,2.6h0H318c0,0-0.1,0-0.1,0c0.1-0.2,0.2-0.3,0.2-0.5c0-0.1,0-0.2-0.1-0.4l0.2-0.4c0.1,0,0.1,0,0.2,0.1   c0.2,0.1,0.2,0.1,0.4,0.3l0.2-0.1l-0.3-0.3l0,0l0,0c-0.1-0.1-0.2-0.1-0.3-0.2l0,0l0.6-1.4l-0.2-0.1l-0.6,1.4   c-0.1,0-0.2-0.1-0.3-0.2c-0.2-0.1-0.3-0.1-0.5-0.2c-0.2-0.1-0.4-0.1-0.6-0.1c-0.1,0-0.2,0-0.2,0c-0.1,0-0.2,0-0.3,0   c-0.2,0-0.3,0-0.5,0.1c0,0,0,0-0.1,0l-0.5-1.1l-0.2,0.1l0.5,1.1c-0.1,0-0.2,0-0.2,0.1c-0.2,0.1-0.3,0.1-0.5,0.2   c-0.1,0.1-0.2,0.1-0.3,0.2l-1-1l-0.2,0.1l0.9,1c0,0,0,0,0,0c-0.2,0.1-0.2,0.2-0.3,0.3c-0.1,0.1-0.2,0.2-0.3,0.3   c-0.1,0.1-0.1,0.1-0.2,0.2l-1.1-0.8l-0.1,0.2l1.1,0.8c0,0,0,0.1,0,0.1c-0.1,0.2-0.1,0.3-0.2,0.5   C313.3,297.6,313.3,297.6,313.3,297.7L313.3,297.7z M319.3,297.7l0.1-0.1c0,0,0,0,0,0.1h0.2c0,0,0-0.1,0-0.1h1.1v-0.2h-1.3   c-0.1,0-0.2-0.1-0.2-0.2h0.5h0.3h0.8c0.1,0,0.1,0.1,0.1,0.2v0.4h0.2v-0.4c0-0.1,0-0.2-0.1-0.3c0.3-0.2,0.8-0.3,1.3-0.3   c0.5,0,0.9,0.1,1.2,0.3c-0.1,0.1-0.1,0.2-0.1,0.3v0.4h0.2v-0.4c0-0.1,0-0.1,0.1-0.2h1.7c0,0.1-0.1,0.2-0.2,0.2H324v0.2h1.1   c0,0,0,0.1,0,0.1h0.2c0,0,0-0.1,0-0.1c0.2,0,0.4-0.2,0.4-0.4l0,0l0,0l0,0v-0.1l0-0.1l0,0l0,0h-1.9c0,0,0,0,0,0   c-0.4-0.3-0.9-0.5-1.5-0.5c-0.6,0-1.1,0.2-1.5,0.5c0,0,0,0,0,0h-0.5l1.1-0.8l-0.1-0.2l-1.3,0.9H319l0,0l0,0l0,0.2l0,0   c0,0.2,0.1,0.3,0.2,0.4l-0.2,0.2L319.3,297.7z M330.5,297.7L330.5,297.7L330.5,297.7h0.2l-0.2-0.4h4.4l0,0.4h0.2l0-0.6h-5l0,0   c-0.2,0-0.3-0.2-0.4-0.4v0c0-0.2,0.2-0.4,0.4-0.5h0.1c0.1,0,0.2,0,0.3,0.1s0.2,0.2,0.1,0.3v0v0.1h0.1c0.3,0,0.6,0,1,0   c0.6,0,1.1-0.1,1.8-0.2c0.4-0.1,0.6-0.1,1-0.3c0.3-0.2,0.5-0.3,0.8-0.5l0.1-0.1l-0.1-0.1c-0.1-0.2-0.2-0.3-0.2-0.5   c0-0.1,0-0.2,0.1-0.3c0.1-0.2,0.2-0.2,0.2-0.3c0.1-0.1,0.2-0.1,0.4-0.1c0.2,0,0.3,0.1,0.4,0.1c0.1,0.1,0.2,0.2,0.2,0.3   c0.1,0.1,0.1,0.2,0.1,0.3c0,0.2-0.1,0.3-0.2,0.5l-0.1,0.1l0.1,0.1c0.3,0.2,0.5,0.3,0.8,0.5c0.4,0.2,0.6,0.2,1,0.3   c0.7,0.2,1.2,0.2,1.8,0.2c0.3,0,0.6,0,1,0h0.1v-0.1v0c0-0.1,0-0.2,0.1-0.3s0.2-0.1,0.3-0.1h0.1c0.2,0,0.4,0.2,0.4,0.5v0   c0,0.2-0.2,0.4-0.4,0.4l0,0h-5l0,0.6h0.2l0-0.4h4.4l-0.2,0.4h0.2v0v0h0.2l-0.2-0.4h0.3c0.3,0,0.5-0.3,0.6-0.6v-0.1   c0-0.3-0.2-0.6-0.5-0.6l0,0h-0.1c-0.3,0-0.6,0.3-0.6,0.6c-0.3,0-0.6,0-0.8,0c-0.6,0-1.1-0.1-1.8-0.2c-0.4-0.1-0.6-0.1-1-0.3   c-0.3-0.1-0.5-0.2-0.7-0.4c0.1-0.2,0.2-0.3,0.2-0.5c0-0.2,0-0.3-0.1-0.4c-0.1-0.2-0.2-0.3-0.3-0.4c-0.1-0.1-0.3-0.1-0.5-0.2h0h0   c-0.2,0-0.4,0.1-0.5,0.2c-0.1,0.1-0.2,0.2-0.3,0.4c-0.1,0.1-0.1,0.3-0.1,0.4c0,0.2,0.1,0.3,0.2,0.5c-0.2,0.2-0.4,0.3-0.7,0.4   c-0.4,0.2-0.6,0.2-1,0.3c-0.7,0.2-1.2,0.2-1.8,0.2c-0.3,0-0.5,0-0.8,0c0-0.3-0.3-0.6-0.6-0.6h-0.1l0,0l0,0   c-0.3,0.1-0.5,0.3-0.5,0.6v0.1c0,0.3,0.3,0.5,0.6,0.6h0.2l-0.2,0.4H330.5z M349.8,297.7c0.5-0.2,0.8-0.7,0.8-1.4   c0.2-1.3-0.7-2-1.5-2.1c-0.8-0.1-1.8,0.3-2,1.5c-0.1,0.9,0.3,1.6,1,1.9L349.8,297.7z M350.5,296.2c-0.1,0.7-0.8,1.2-1.8,1.1   c-1.3-0.2-1.3-0.9-1.3-1.2c0.1-0.8,0.9-1.3,1.8-1.1C350.3,295,350.6,295.7,350.5,296.2 M316.1,297.5   C316,297.5,316,297.5,316.1,297.5h-0.2l-0.7-0.8l0.3-0.2l0.3-0.2l0.1,0l0.2,0.3c0,0.1,0,0.2,0,0.3   C315.9,297.1,315.9,297.3,316.1,297.5 M316.8,296.5v0.6c-0.1-0.3-0.4-0.4-0.7-0.5l-0.1-0.3l0.2-0.1l0.4-0.1l0.5,0l0.4,0l0.3,0   l-0.2,0.4c-0.3,0.1-0.5,0.2-0.6,0.5v-0.5L316.8,296.5z"></path>
	<path class="st0" d="M303.8,289.8c-0.2,1.1-0.2,2.2-0.2,3.3c0,0.2,0,0.4,0,0.6h0.4c0-0.2,0-0.4,0-0.6c0-1.1,0.1-2.3,0.2-3.3H303.8z    M308.7,289.8L308.7,289.8C308.7,289.8,308.7,289.8,308.7,289.8L308.7,289.8z M310.1,289.8c-0.2,1.1-0.3,2.2-0.3,3.3   c0,0.2,0,0.4,0,0.6h0.5c0.2-0.2,0.4-0.4,0.7-0.4h16c0.3,0,0.6,0.2,0.7,0.4h0.6c0.2-0.2,0.4-0.4,0.7-0.4h16c0.3,0,0.6,0.2,0.7,0.4   h0.5c0-0.2,0-0.4,0-0.6c0-1.1-0.1-2.3-0.3-3.3h-0.4c0.1,0.7,0.2,1.5,0.3,2.3c0,0.5-0.4,0.9-0.8,0.9h-16c-0.5,0-0.9-0.4-0.9-0.8   v-2.3h-0.4v2.3c0,0.5-0.4,0.8-0.9,0.8h-16c-0.5,0-0.8-0.4-0.8-0.9c0-0.8,0.2-1.5,0.3-2.3H310.1z M316.8,289.8L316.8,289.8l0,0.1   l0.1,0.2v0.1c0,0.1,0,0.2,0.1,0.2l0,0l0.2,0.2c0,0,0,0.1,0,0.1l0,0l-0.6,0.5c-0.2,0.2-0.3,0.4-0.3,0.7v0.1h3.1v-0.1   c0-0.3-0.1-0.5-0.3-0.7l0,0l-0.6-0.5c0,0-0.1-0.1-0.1-0.2v-0.4c0,0,0.1,0,0.1-0.1c0.1-0.1,0.2-0.2,0.2-0.3h-0.2   c0,0.1,0,0.1-0.1,0.2l0,0c0,0,0,0-0.1,0h0c0,0,0,0-0.1,0c0,0-0.1,0-0.1,0l0,0l-0.4,0.1c-0.1,0-0.2,0.1-0.3,0.1c0,0,0,0,0,0   c0,0,0,0-0.1,0.1l0,0l-0.1-0.1l0,0c0-0.1,0-0.1,0-0.2l0-0.1c0,0,0,0,0,0l0-0.1l0,0l0,0l0.1,0l0,0l0.1,0H317l0,0l0,0l0,0   L316.8,289.8z M322.1,289.8v2.2h1.8v-2.2h-0.2v2h-1.4v-2H322.1z M330.8,289.8l-0.9,2.2l0.2,0.1l0.9-1.4v1.3h10l0,0v-1.1l0.7,1.3   l0.2-0.1l-0.9-2.2h-0.2l0,0.1l0.1,0.2l0,0l0.3,0.7l-0.3-0.5l0,0l-0.2-0.3l0,0l-0.2-0.3h-0.3v2h-0.7v-2h-0.2v2h-0.2v-2h-0.2v2h-0.7   v-2H338v2h-0.2v-2h-0.2v2h-0.7v-2h-0.2v2h-0.2v-2h-0.2v2h-0.8v-2h-0.2v2h-0.2v-2h-0.2v2h-0.7v-2H334v2h-0.2v-2h-0.2v2h-0.7v-2h-0.2   v2h-0.2v-2h-0.2v2h-0.7v-2h-0.4l-0.1,0.2l-0.1,0.2l-0.1,0.2l-0.4,0.6l0.4-0.8l0.1-0.2L330.8,289.8L330.8,289.8z M348.1,289.8   l-0.7,0.4c0,0-0.1,0-0.1,0l0-0.1c0,0,0,0.1,0,0.2c0.1,0.3,0.1,0.7,0.2,0.8c0,0.2,0,0.2,0.1,0.2l0-0.1c0-0.1,0-0.1,0-0.2   s0-0.2,0.4-0.5c0.3-0.2,0.8-0.5,1.2-0.8L348.1,289.8z M351.9,289.8c0.2,1.1,0.2,2.2,0.2,3.3c0,0.2,0,0.4,0,0.6h0.4   c0-0.2,0-0.4,0-0.6c0-1.1-0.1-2.3-0.2-3.3H351.9z M305.3,293.7c-0.1,0-0.1-0.1-0.1-0.2c0-0.1,0-0.1,0-0.1c0,0,0-0.1,0-0.1   c0,0,0,0,0,0.1c0,0.1,0,0.2,0,0.3H305.3z M308.5,293.7c0-0.2,0-0.3,0-0.5c0,0,0-0.1,0-0.1c0,0,0,0,0,0.1c0,0.1,0,0.2,0,0.2   c0,0.1-0.1,0.2-0.2,0.2c-0.2,0-0.5,0-1,0l-0.8,0c-0.1,0-0.2,0-0.3,0L308.5,293.7z M350.8,293.7L350.8,293.7c0-0.1,0-0.2,0-0.5   l0-1.8c0-0.2,0-0.3,0-0.5c0-0.1,0-0.2,0-0.2c0,0,0,0-0.1,0c0,0-0.5-0.1-0.5-0.1c0,0-0.1,0-0.1,0l0,0c0,0,0.1,0,0.2,0.1   c0.1,0.1,0.1,0.2,0.1,0.4l0,0.7l-1.8,0c-0.4,0-0.8,0-1,0c-0.1,0-0.2,0-0.2-0.1c0,0,0-0.1,0-0.2s0-0.1,0-0.1c0,0,0,0,0,0.1   c0,0.2,0,0.5,0,0.6c0,0.1,0,0.4,0,0.7c0,0,0,0.1,0,0.1c0,0,0,0,0-0.1c0-0.1,0-0.2,0-0.2c0-0.1,0.1-0.2,0.2-0.2c0.2,0,0.5,0,1,0   l1.8,0v0.6c0,0.4-0.1,0.5-0.2,0.5h0c-0.1,0-0.1,0-0.1,0c0,0,0,0,0,0L350.8,293.7z M305.1,292.4   C305.2,292.4,305.2,292.4,305.1,292.4c0-0.1,0.1-0.2,0.1-0.2c0-0.2,0.1-0.2,0.3-0.2c0.2,0,0.3,0,0.9,0.1l0.8,0.1c0.4,0,0.8,0,1,0.1   c0.1,0,0.2,0.1,0.2,0.2c0,0,0,0.1,0,0.2c0,0,0,0.1,0,0.1c0,0,0,0,0-0.1c0-0.2,0-0.5,0-0.6c0-0.1,0-0.4,0.1-0.7c0-0.1,0-0.1,0-0.1   c0,0,0,0,0,0.1c0,0.1,0,0.2,0,0.2c0,0.1-0.1,0.2-0.3,0.2c-0.2,0-0.5,0-1,0l-0.4,0l0,0c0-0.1,0-0.5,0.1-0.7c0-0.1,0.1-0.2,0.2-0.2   c0,0,0.1,0,0.1,0l0.1,0c0,0,0,0-0.1,0c0,0-0.2,0-0.3,0c-0.1,0-0.2,0-0.3,0l0,0l0,0.1c0,0,0.1,0.1,0.1,0.2c0,0.1,0,0.1,0,0.2l0,0.6   l0,0l-1.1-0.1c0,0-0.1,0-0.1,0l0.1-0.7c0-0.2,0.1-0.3,0.2-0.3c0.1,0,0.1,0,0.2,0c0,0,0.1,0,0.1,0l-0.1,0c-0.1,0-0.3,0-0.4,0   c-0.1,0-0.2,0-0.2,0l0,0l0,0.1c0,0,0,0.1,0,0.2c0,0.1-0.1,1-0.1,1.2c0,0.1,0,0.4,0,0.6C305.1,292.4,305.1,292.4,305.1,292.4    M331.4,291.7h-0.3v-1.4l0.3-0.4V291.7z M340.7,291.7h-0.3V290l0.3,0.5V291.7z M318.9,291.3c0.1,0.1,0.2,0.2,0.2,0.4h-2.7   c0-0.2,0.1-0.3,0.2-0.4l0,0l0.6-0.5l0,0c0.1-0.1,0.1-0.2,0.1-0.3c0-0.1,0-0.1,0.1-0.1c0.1-0.1,0.1-0.1,0.2-0.1l0,0l0.4-0.1l0,0   c0,0,0,0,0.1,0v0.3c0,0.1,0.1,0.2,0.2,0.3L318.9,291.3z"></path>
	<path class="st0" d="M307.7,277.8c-0.1,0.2-0.2,0.2-0.3,0.4c0,0-0.1,0-0.1,0s-0.1,0-0.2,0h0c0,0-0.1,0-0.2,0   c-0.1,0-0.2-0.1-0.3-0.1h0c-0.1,0-0.2,0-0.3,0c-0.1,0-0.2,0.1-0.3,0.1c-0.1,0.1-0.2,0.1-0.2,0.2c0,0.1,0,0.2,0,0.2s0,0.1,0,0.2   c0,0.1,0.1,0.2,0.2,0.3s0.2,0.1,0.2,0.2c0.1,0,0.2,0.1,0.2,0.1c0.1,0,0.2,0,0.2,0h0c0.1,0,0.3,0,0.6-0.1c0.2-0.1,0.4-0.2,0.7-0.3   c-2.1,3.1-3.6,6.7-4.1,10.6h0.4c0.6-4.2,2.2-8,4.7-11.2c0.1-0.1,0.2-0.2,0.3-0.4c0.1-0.1,0.2-0.2,0.3-0.3h-0.5   c-0.1,0.1-0.2,0.2-0.3,0.3c0,0,0.1-0.1,0.1-0.2l0,0c0,0,0-0.1,0.1-0.2h-0.2c0,0,0,0,0,0c-0.2,0.2-0.2,0.3-0.2,0.4   c0,0.1-0.1,0.1-0.2,0.2c-0.1,0.1-0.2,0.2-0.2,0.2c-0.2,0.2-0.5,0.3-0.8,0.4c-0.2,0.1-0.4,0.1-0.5,0.1l0,0c-0.1,0-0.1,0-0.2,0   c0,0-0.1,0-0.1,0c-0.1,0-0.1-0.1-0.1-0.1c0,0,0,0,0-0.1v-0.1l0-0.1l0,0l0,0c0.1-0.1,0.1-0.1,0.2-0.1c0,0,0.1,0,0.2,0h0   c0.1,0,0.1,0,0.2,0c0.1,0,0.2,0.1,0.3,0.1h0.1c0.1,0,0.1,0,0.2,0s0.2-0.1,0.2-0.1c0.2-0.2,0.3-0.3,0.4-0.5c0-0.1,0.1-0.1,0.1-0.2   L307.7,277.8z M313.5,277.8l0.1,0.2c0.4,0.5,0.7,0.7,1,0.7c0.4,0,0.8-0.2,1-0.4c0.2-0.1,0.3-0.3,0.4-0.5h-0.3   c-0.1,0.1-0.1,0.2-0.2,0.2c-0.1,0.1-0.3,0.2-0.5,0.2c-0.2,0-0.5-0.1-0.8-0.4L313.5,277.8z M318.1,277.8c-4.1,2.7-7,7-7.9,11.9h0.4   c0.9-4.9,3.8-9,7.8-11.6c0.2-0.1,0.3-0.2,0.5-0.3L318.1,277.8z M322.1,277.8v3H319v1.8h3.1v7.1h0.2v-7.3h-3.1v-1.4h3l0-0.2l0,0v-3   L322.1,277.8z M323.7,277.8v3.2h3.1v1.4h-3.1v7.3h0.2v-7.1h3.1v-1.8h-3.1v-3L323.7,277.8z M327.9,277.8v11.9h0.4v-11.9H327.9z    M337.4,277.8c0.2,0.1,0.3,0.2,0.5,0.3c4,2.6,6.8,6.8,7.8,11.6h0.4c-0.9-5-3.9-9.2-7.9-11.9L337.4,277.8z M339.8,277.8   c0.1,0.1,0.3,0.2,0.3,0.2c0.1,0.1,0.2,0.2,0.3,0.3l0.1,0l0-0.1l-0.1,0c-0.1-0.1-0.1-0.2,0-0.2c0,0,0.1-0.1,0.2-0.2l0.1-0.1   L339.8,277.8L339.8,277.8z M341.6,277.8l0.4,0.4l0,0.1l-0.3,1c0,0.1-0.1,0.1-0.1,0.1h-0.1c0,0,0,0.1,0.1,0.1   c0.3,0.2,0.5,0.4,0.6,0.5s0.2,0.1,0.2,0.1l0-0.1c0,0-0.1-0.1-0.1-0.1c0-0.1-0.1-0.2,0-0.6c0.1-0.3,0.3-0.8,0.4-1.4h-0.5l0,0.1h0   l-0.2-0.1H341.6z M346.7,277.8c0,0.1,0.1,0.1,0.2,0.2c0.1,0.1,0.1,0.2,0.2,0.2c0.1,0.1,0.1,0.2,0.2,0.2c2.5,3.2,4.1,7.1,4.7,11.3   h0.4c-0.5-3.9-2-7.5-4.1-10.6c0.2,0.1,0.3,0.2,0.5,0.2c0.4,0.2,0.7,0.2,0.8,0.2h0c0.1,0,0.2,0,0.2,0c0.1,0,0.2,0,0.2-0.1   c0.1,0,0.2-0.1,0.2-0.2c0.1-0.1,0.1-0.2,0.2-0.3c0,0,0-0.1,0-0.2c0-0.1,0-0.2,0-0.2c0-0.1-0.1-0.2-0.2-0.2   c-0.1-0.1-0.2-0.1-0.3-0.1c-0.1,0-0.2,0-0.3,0h0c-0.1,0-0.2,0-0.3,0.1c-0.1,0-0.1,0-0.2,0h0c-0.1,0-0.1,0-0.2,0l-0.1,0   c-0.1-0.1-0.2-0.2-0.2-0.2c0,0,0-0.1-0.1-0.2H348c0,0.1,0.1,0.1,0.1,0.2c0.1,0.2,0.1,0.2,0.2,0.3c0.1,0.1,0.1,0.1,0.2,0.2   c0.1,0.1,0.2,0.1,0.2,0.1c0.1,0,0.1,0,0.2,0h0.1c0.1,0,0.2,0,0.3-0.1c0.1,0,0.1,0,0.2,0h0c0.1,0,0.2,0,0.2,0c0,0,0.1,0,0.2,0.1l0,0   l0,0.1v0.1c0,0.1,0,0.1,0,0.1c0,0-0.1,0.1-0.2,0.1c0,0-0.1,0-0.1,0c0,0-0.1,0-0.2,0c0,0-0.3,0-0.6-0.1c-0.2-0.1-0.4-0.2-0.6-0.3   c-0.1,0-0.1-0.1-0.2-0.2c0,0,0,0,0,0c-0.1-0.1-0.2-0.2-0.2-0.3c0,0,0,0,0,0c0-0.1-0.1-0.2-0.2-0.3l0,0c0,0,0,0,0,0h-0.2   c0,0.1,0.1,0.2,0.1,0.2l0,0c0,0,0,0,0,0c0-0.1-0.1-0.1-0.2-0.2L346.7,277.8z M308.7,289.8C308.8,289.8,308.8,289.7,308.7,289.8   c0.1-0.2,0.1-0.5,0.2-0.6c0-0.1,0.1-0.4,0.2-0.7c0,0,0-0.1,0-0.1c0,0,0,0-0.1,0.1c0,0.1,0,0.2-0.1,0.2c0,0.1-0.1,0.1-0.2,0.1   c-0.2,0-0.5-0.1-1-0.2l-0.8-0.2c-0.6-0.2-0.8-0.2-0.9-0.2c-0.2,0-0.2-0.1-0.2-0.2c0-0.1,0-0.1,0-0.1l0-0.1c0,0,0,0-0.1,0.1   c0,0.2-0.1,0.4-0.1,0.5c0,0.1-0.1,0.4-0.2,0.6c0,0.1,0,0.1,0,0.1l0.1-0.1c0,0,0-0.1,0-0.2c0-0.1,0.1-0.1,0.3-0.1   c0.2,0,0.3,0,0.9,0.2l0.8,0.2c0.4,0.1,0.8,0.2,0.9,0.2c0.1,0,0.2,0.1,0.2,0.2C308.7,289.6,308.7,289.7,308.7,289.8   C308.7,289.8,308.7,289.8,308.7,289.8L308.7,289.8z M317,289.8l-0.1-0.2v-0.1v-0.1c0-0.1,0.1-0.2,0.2-0.2c0,0,0.1-0.1,0.1-0.1   c0,0,0.1,0,0.1,0c0,0,0,0,0,0l0,0l0.1,0l0.3-0.1l0.2-0.1c0.1,0,0.2-0.1,0.3-0.1c0,0,0,0,0,0c0,0,0.1-0.1,0.1-0.1c0,0,0-0.1,0.1-0.1   l0,0l0,0l0,0l0,0l0.1,0.1l0,0.2v0.2c0,0.1-0.1,0.1-0.2,0.2l0,0l0,0l0,0l-0.1,0.1l-0.1,0.1l0,0c0,0,0,0-0.1,0   c-0.2,0.1-0.2,0.1-0.4,0.1h0l-0.3,0.1l-0.1,0l0,0h0c0,0-0.1,0-0.1,0C317.1,289.6,317.1,289.7,317,289.8L317,289.8   C317,289.7,317,289.8,317,289.8h0.3h0l0.2-0.1l0.2-0.1l0.2,0h0l0.1,0l0.1,0l0,0l0,0l0,0c0,0,0,0,0,0l0,0.1l0,0l0,0   c0.1,0.1,0.1,0.1,0.1,0.2l0,0c0,0,0,0,0,0h0.2v0c0-0.1,0-0.2-0.1-0.3l0,0l0-0.1c0,0,0,0,0.1,0c0.1-0.1,0.2-0.2,0.2-0.3v0v-0.2   l0-0.2v0l-0.1-0.2v0l-0.2-0.2c0-0.1,0-0.2,0.1-0.3c0.2-0.2,0.3-0.3,0.6-0.5c0.2-0.2,0.4-0.3,0.6-0.4c0.2-0.1,0.3-0.3,0.4-0.5   c0.2-0.4,0.3-0.7,0.3-1.3V285l-5.2,0v0.2c0,0.5,0,0.7,0.2,1.2c0.1,0.2,0.3,0.4,0.4,0.5c0.2,0.1,0.3,0.2,0.6,0.4   c0.2,0.2,0.3,0.2,0.5,0.4l-0.1,0h0c-0.1,0-0.3-0.1-0.9-0.3c-0.3-0.2-0.5-0.3-0.7-0.4c-0.2-0.2-0.3-0.3-0.4-0.5   c-0.1-0.3-0.2-0.4-0.2-0.7c0-0.2,0-0.3,0.1-0.5c0-0.2,0.1-0.3,0.1-0.3c0.1-0.1,0.1-0.2,0.1-0.3c0-0.1,0.1-0.1,0.2-0.2   c0.3-0.2,0.6-0.3,0.8-0.3c0,0,0.1,0,0.2,0c0.1,0,0.2,0,0.3,0c0.1,0,0.2,0,0.2,0h0l0,0c0.5,0.3,0.7,0.4,0.9,0.4c0,0,0,0,0.1,0   c0.1,0,0.3,0,0.5,0c0.2,0,0.4-0.1,0.7-0.3c0,0,0,0,0,0h0.1h0c0,0,0.2,0,0.3,0c0.1,0,0.2-0.2,0.2-0.2l0.1-0.1l-0.1,0   c0,0-0.1,0-0.2,0h0c-0.1,0-0.2,0-0.3-0.1h0c0,0,0,0,0,0l0,0l0,0c-0.1-0.2-0.2-0.2-0.2-0.3c0-0.1-0.1-0.1-0.2-0.2l0,0   c0,0-0.1-0.1-0.2-0.1c-0.1,0-0.2-0.1-0.3-0.1c-0.1,0-0.2,0-0.3,0c-0.3,0-0.5,0.1-0.6,0.1c-0.4,0-0.8-0.1-1.2-0.1   c-0.1,0-0.3,0-0.4,0.1c-0.3,0.1-0.6,0.3-0.7,0.3l0,0v0c-0.2,0.2-0.3,0.3-0.5,0.5c-0.2,0.2-0.3,0.4-0.3,0.5v0l0,0   c0,0.2-0.1,0.3-0.2,0.6c0,0.2-0.1,0.4-0.1,0.6c0,0.1,0,0.2,0,0.2c0,0.2,0,0.4,0.2,0.7c0.3,1,1.2,1.5,2,1.8c0.6,0.2,0.8,0.3,1.5,0.5   c-0.1,0-0.1,0.1-0.2,0.1c-0.1,0.1-0.2,0.2-0.2,0.3c0,0.1,0,0.1,0,0.2c0,0,0,0.1,0,0.1l0,0l0.1,0.2L317,289.8z M331,289.8L331,289.8   l0.1-0.3l2.2-5.1l0,0l0,0l0-0.1l0,0l0-0.1l0,0l0.3-0.6l0-0.1l0-0.1l1-2.2l0-0.1c0.1,0.2,0.3,0.3,0.5,0.5c0.2,0.1,0.4,0.2,0.6,0.2   c0,0,0.1,0,0.2,0c0.1,0,0.2,0,0.3,0l0,0l-0.1,0.2l-0.2,0.3l0,0l-0.7,1.2l-0.1,0.1l-0.1,0.1l-0.4,0.6l0,0l-0.1,0.1l0,0l-0.1,0.1l0,0   l-3.4,5.3h0.4v-0.2l0.7-1.1v1.3h0.2v-1.5h-0.1l1.1-1.7h2.4h2.6l0.9,1.5h-0.1v1.6h0.2v-1.4l0.7,1.2v0.2h0.3l-3.1-5.3l0,0l-0.1-0.1   l0,0l0-0.1l0,0l-0.3-0.6l-0.1-0.1l-0.1-0.1l-0.7-1.2l0,0l0.2-0.3l0.2-0.2l0,0c0,0,0.1,0,0.2-0.1c0.1-0.1,0.3-0.1,0.4-0.3   c0,0,0,0,0,0c0.1-0.1,0.2-0.2,0.2-0.3l0,0l0.9,2.3l0,0.1l0,0.1l0.2,0.6l0,0l0,0.1l0,0l0,0.1l0,0l2,5.2v0l0,0.1h0.2l-0.1-0.2v-1.7   c0.1,0,0.2,0,0.2,0h0.1c0.8,0,1.6-0.7,1.7-1.6c0-0.1,0-0.2,0-0.3c0-0.5-0.2-0.9-0.6-1.3c-0.3-0.3-0.7-0.5-1.1-0.5h-0.4l0.6-0.8h-3   l-1-2.6c0.1-0.2,0.1-0.4,0.1-0.6c0-0.8-0.7-1.6-1.6-1.6c-0.8,0-1.5,0.7-1.6,1.6c0,0.2,0,0.4,0.1,0.6l-0.1,0.2l-1,2.3H330l0.6,0.8   c-0.4,0-0.8,0.2-1.1,0.5c-0.4,0.3-0.6,0.8-0.6,1.3l0,0c0,0.1,0,0.2,0,0.3c0.1,0.9,0.9,1.6,1.7,1.6h0.1h0c0,0,0.1,0,0.1,0v1.6   l-0.1,0.3L331,289.8z M332.9,289.8v-1.4c0-0.2,0.2-0.3,0.3-0.3h0c0.2,0,0.3,0.1,0.3,0.3v1.5h0.2v-1.5l0,0c-0.1-0.2-0.2-0.4-0.5-0.4   h-0.1c-0.3,0-0.5,0.2-0.6,0.5v1.5L332.9,289.8L332.9,289.8z M334.3,289.8v-1.4c0-0.2,0.2-0.3,0.3-0.3h0c0.2,0,0.3,0.1,0.3,0.3v1.5   h0.2v-1.5l0,0c0-0.2-0.2-0.4-0.5-0.4h-0.1c-0.3,0-0.5,0.2-0.5,0.5v1.5H334.3z M335.6,289.8v-1.4c0.1-0.2,0.1-0.2,0.2-0.3   c0,0,0.1-0.1,0.2-0.1c0.1,0,0.2,0.1,0.2,0.1c0,0,0.1,0.1,0.2,0.3v1.4h0.2v-1.5v0c-0.1-0.2-0.1-0.3-0.2-0.3   c-0.1-0.1-0.2-0.1-0.3-0.2l0,0.1l0-0.1c-0.1,0-0.2,0.1-0.3,0.2s-0.2,0.2-0.2,0.3v0v1.5H335.6z M336.9,289.8v-1.5   c0-0.2,0.1-0.2,0.3-0.3h0c0.2,0,0.3,0.1,0.3,0.3v1.4h0.2v-1.5c0-0.3-0.3-0.5-0.5-0.5h-0.1c-0.2,0-0.4,0.2-0.5,0.4v1.5H336.9z    M338.2,289.8v-1.5c0-0.2,0.1-0.2,0.3-0.3h0c0.2,0,0.3,0.1,0.3,0.3v1.4h0.2v-1.5l0,0c0-0.3-0.3-0.5-0.6-0.5h-0.1   c-0.2,0-0.4,0.2-0.5,0.4v1.5H338.2z M349.1,289.8c0.6-0.4,1.1-0.7,1.3-0.8c0.1-0.1,0.1-0.1,0.1-0.1c0,0-0.1-0.1-0.2-0.1l-2.9-0.6   c-0.2,0-0.4-0.1-0.5-0.3l0-0.1l0,0c0,0,0,0,0,0.1c0,0.2,0.1,0.5,0.1,0.5c0,0.1,0,0.3,0.1,0.5c0,0,0,0.1,0.1,0.1c0,0,0,0,0-0.1   l0-0.1c0-0.1,0-0.2,0.1-0.2c0,0,0.2,0,0.3,0l0.7,0.1l0,0l0.2,1l0,0l-0.2,0.1L349.1,289.8z M307.5,287.3c0.4,0.2,0.9,0.2,1.4,0   c0.5-0.2,0.8-0.7,1-1.2c0.1-0.3,0.2-0.6,0.2-0.8c0-0.1,0-0.1-0.1-0.2c-0.1-0.1-0.5-0.3-0.5-0.3l-0.1,0c0,0,0,0,0.1,0.1   c0.1,0,0.2,0.2,0.2,0.2c0.1,0.2,0.1,0.5-0.1,0.8c-0.2,0.6-1,1.1-2,0.7c-0.4-0.2-0.8-0.4-0.9-0.8c-0.1-0.3-0.1-0.5,0.1-0.9   c0.2-0.4,0.4-0.6,0.6-0.7c0.2-0.1,0.3-0.1,0.4,0c0.1,0,0.1,0,0.1,0c0,0,0-0.1-0.1-0.1c-0.1,0-0.3-0.1-0.5-0.2   c-0.2-0.1-0.2-0.1-0.2-0.1l-0.1,0c-0.1,0.1-0.2,0.2-0.2,0.4c-0.1,0.2-0.2,0.3-0.3,0.6c-0.2,0.6-0.2,1.1-0.1,1.5   C306.8,286.9,307.2,287.2,307.5,287.3 M307.6,282.9L307.6,282.9c0.1-0.1,0.1-0.1,0.2-0.2c0.1-0.1,0.2-0.1,0.3,0   c0.1,0.1,0.2,0.1,0.8,0.5l0.7,0.4c0.4,0.2,0.7,0.4,0.8,0.5c0.1,0.1,0.2,0.2,0.1,0.2c0,0,0,0.1-0.1,0.2c0,0,0,0.1,0,0.1   c0,0,0,0,0.1,0c0.1-0.2,0.2-0.4,0.3-0.5c0.1-0.1,0.2-0.3,0.4-0.6v-0.1l-0.1,0c0,0.1-0.1,0.2-0.1,0.2c-0.1,0.1-0.2,0.1-0.3,0   c-0.2-0.1-0.5-0.3-0.8-0.5l-0.7-0.4c-0.6-0.3-0.7-0.4-0.8-0.5c-0.1-0.1-0.2-0.2-0.1-0.3c0,0,0-0.1,0.1-0.1v-0.1c0,0,0,0-0.1,0.1   c-0.1,0.2-0.2,0.4-0.3,0.5c-0.1,0.1-0.2,0.3-0.3,0.5C307.6,282.8,307.6,282.8,307.6,282.9 M311.1,282.5c0.1,0.2,0.2,0.4,0.1,0.5   l-0.1,0.1v0.1c0,0,0,0,0.1,0c0.1-0.2,0.3-0.4,0.3-0.4c0.1-0.1,0.2-0.3,0.3-0.4v-0.1l-0.1,0l0,0c-0.1,0.1-0.2,0.1-0.2,0.1   c0,0-0.1-0.1-0.2-0.2l-0.4-0.6v0l0.6-0.8l0,0l1,0.3c0.1,0,0.1,0.1,0.1,0.1l0,0.1c0,0,0.1,0,0.1-0.1c0.2-0.3,0.4-0.5,0.5-0.7   c0.1-0.1,0.1-0.2,0.1-0.2l-0.1,0c0,0-0.1,0.1-0.1,0.2c-0.1,0.1-0.2,0.1-0.6,0c-0.7-0.2-2.6-0.7-2.9-0.7c-0.1,0-0.2,0-0.2,0   c0,0,0,0.1,0.1,0.2L311.1,282.5z M310.1,280.4l1.1,0.3v0l-0.5,0.7h0L310.1,280.4L310.1,280.4L310.1,280.4z M342.7,280.3   c0,0-0.1-0.1-0.1-0.1l-0.1,0c0,0,0,0.1,0,0.1c0.1,0.1,0.3,0.3,0.4,0.4c0.2,0.2,0.3,0.5,0.6,0.8c0.5,0.6,1.1,0.8,1.3,0.8   c0.4,0,0.8,0,1.3-0.4c0.4-0.3,0.6-0.7,0.6-1c0.1-0.7-0.4-1.3-0.7-1.7c-0.2-0.2-0.3-0.4-0.4-0.5c-0.1-0.1-0.2-0.3-0.4-0.5   c0-0.1-0.1-0.1-0.1,0l0,0.1c0,0,0.1,0.1,0.1,0.1c0.1,0.1,0,0.2-0.1,0.3s-0.2,0.2-0.7,0.6l-0.6,0.5c-0.3,0.3-0.6,0.5-0.8,0.6   C342.8,280.3,342.7,280.4,342.7,280.3 M343.3,280.7c0-0.1,0.2-0.2,0.2-0.3c0.1,0,0.3-0.3,0.7-0.6l0.4-0.3c0.3-0.2,0.6-0.5,0.7-0.6   l0.1,0c0,0,0.2,0.1,0.2,0.2c0.2,0.3,0.5,0.7,0.5,1.3c0,0.3-0.2,0.7-0.6,1c-0.3,0.3-0.7,0.5-1.1,0.4c-0.3-0.1-0.6-0.2-0.9-0.6   C343.3,281.1,343.3,280.9,343.3,280.7 M346.1,285c-0.2,0.5-0.1,1,0.1,1.6c0.1,0.3,0.3,0.6,0.4,0.7c0.1,0.1,0.1,0.1,0.2,0.1   c0.2,0,0.5-0.1,0.6-0.1l0-0.1c0,0,0,0-0.1,0c-0.1,0-0.2,0-0.3,0c-0.3-0.1-0.4-0.3-0.5-0.6c-0.2-0.6,0-1.5,1-1.9   c0.4-0.2,0.8-0.2,1.2-0.1c0.2,0.1,0.4,0.3,0.6,0.7c0.2,0.4,0.2,0.8,0.1,1c-0.1,0.2-0.2,0.3-0.3,0.3c-0.1,0-0.1,0-0.1,0.1   c0,0,0,0,0.1,0c0.1,0,0.3-0.1,0.5-0.2c0.2,0,0.2-0.1,0.2-0.1c0,0,0,0,0-0.1c0-0.1-0.1-0.3-0.1-0.4c-0.1-0.2-0.1-0.4-0.2-0.6   c-0.3-0.6-0.6-0.9-1-1.1c-0.5-0.2-1-0.1-1.3,0C346.7,284.2,346.3,284.5,346.1,285 M348.4,288.7l1.1,0.2l0,0l0,0l-1,0.6l0,0   L348.4,288.7L348.4,288.7z M336.1,281.4c0.6,0,1.1-0.5,1.1-1.1c0-0.6-0.5-1.1-1.1-1.1s-1.1,0.5-1.1,1.1   C334.9,280.9,335.5,281.4,336.1,281.4 M336.1,279.3c0.5,0,1,0.4,1,1c0,0.5-0.4,1-1,1c-0.5,0-1-0.4-1-1   C335.1,279.7,335.6,279.3,336.1,279.3 M336.8,283.6l0.3,0.6H335l0.4-0.6H336.8z M335.5,283.4l0.6-1l0.6,1H335.5z M337.3,284.4   l1.1,2h-4.8l1.3-2H337.3z M341.2,284.4c0.4,0,0.7,0.1,1,0.4c0.4,0.3,0.5,0.7,0.5,1.1c0,0.1,0,0.2,0,0.3c-0.1,0.8-0.8,1.5-1.5,1.5h0   h-0.1c0,0-0.1,0-0.1,0c-0.7-0.1-1.2-0.5-1.2-1.2v-0.1c0-0.2,0.1-0.4,0.2-0.6c0.1-0.2,0.3-0.3,0.6-0.3c0,0,0.1,0,0.1,0   c0.3,0,0.6,0.2,0.6,0.5v0c0,0.2-0.1,0.4-0.3,0.5l0.1,0.2c0.3-0.1,0.5-0.4,0.5-0.7V286c0-0.4-0.4-0.7-0.8-0.7c-0.1,0-0.1,0-0.2,0   c-0.3,0.1-0.5,0.2-0.7,0.4c-0.1,0.2-0.2,0.4-0.2,0.6l-0.7-1.9L341.2,284.4z M340.7,287.8v1.3l-0.6-1.6   C340.3,287.6,340.5,287.8,340.7,287.8 M341.1,283.6l-0.5,0.6h-1.8l-0.2-0.6H341.1z M336.1,278.9c0.7,0,1.3,0.6,1.3,1.3   c0,0.3-0.1,0.5-0.2,0.7c0,0.1-0.1,0.2-0.2,0.3c-0.1,0.1-0.2,0.2-0.3,0.2c0,0,0,0-0.1,0c0,0-0.1,0-0.1,0l0,0h0h0c-0.1,0-0.2,0-0.4,0   c-0.1,0-0.2,0-0.2,0c-0.6-0.1-1.1-0.7-1.1-1.3C334.7,279.5,335.3,278.9,336.1,278.9 M331.1,289v-1.2c0.2-0.1,0.5-0.2,0.6-0.3   L331.1,289z M330.4,283.6h3.1l-0.3,0.6h-2.4L330.4,283.6z M329.6,284.9c0,0,0.1-0.1,0.1-0.1l0,0c0.3-0.3,0.6-0.4,1-0.4h2.4   l-0.8,1.9c0-0.2-0.1-0.4-0.2-0.6c-0.2-0.2-0.4-0.3-0.7-0.4c-0.1,0-0.1,0-0.2,0c-0.4,0-0.8,0.3-0.8,0.7v0.1c0,0.3,0.2,0.6,0.5,0.7   l0.1-0.2c-0.2-0.1-0.3-0.3-0.3-0.5v0c0-0.3,0.3-0.5,0.6-0.5c0,0,0.1,0,0.2,0c0.3,0,0.5,0.2,0.6,0.3c0.1,0.2,0.2,0.3,0.2,0.6v0.1   c0,0.7-0.6,1.1-1.3,1.2h-0.1h-0.1c-0.7,0-1.4-0.7-1.5-1.5c0-0.1,0-0.2,0-0.3C329.2,285.5,329.3,285.2,329.6,284.9 M317.8,283.8   c0.1,0,0.2,0,0.2-0.1s-0.1-0.1-0.2-0.1s-0.2,0-0.2,0.1C317.7,283.8,317.8,283.8,317.8,283.8 M315.7,288.2c-0.8-0.3-1.6-0.8-1.9-1.7   c-0.1-0.3-0.1-0.4-0.1-0.6c0-0.1,0-0.1,0-0.2c0-0.2,0-0.4,0-0.6c0.1-0.3,0.2-0.5,0.2-0.6c0.1-0.1,0.2-0.3,0.3-0.5   c0.1-0.2,0.2-0.2,0.5-0.4c0.1-0.1,0.4-0.2,0.7-0.3c0.1,0,0.2,0,0.3,0c0.3,0,0.8,0.1,1.2,0.1c0.2,0,0.4-0.1,0.6-0.1   c0.1,0,0.2,0,0.2,0c0.1,0,0.2,0.1,0.3,0.1c0.1,0,0.2,0.1,0.2,0.1c0.1,0.1,0.1,0.1,0.2,0.2c0,0,0.1,0.1,0.2,0.2l0,0l0,0.1v0   c0,0,0,0,0,0c-0.2,0.2-0.4,0.2-0.6,0.2c-0.1,0-0.3,0-0.4,0h-0.1h0c-0.2,0-0.3-0.1-0.8-0.4l-0.1,0c0,0-0.1,0-0.2,0l0,0h0   c-0.1,0-0.2,0-0.3,0c-0.1,0-0.2,0-0.2,0l0,0c-0.3,0.1-0.6,0.1-0.9,0.3c-0.2,0.1-0.2,0.2-0.3,0.3c0,0.1-0.1,0.2-0.1,0.2l0,0v0   c0,0,0,0.2-0.1,0.3c0,0.2-0.1,0.3-0.1,0.5c0,0.3,0,0.5,0.2,0.8c0.1,0.3,0.3,0.5,0.5,0.6c0.2,0.2,0.4,0.3,0.7,0.4l0,0l0,0   c0.7,0.3,0.9,0.3,1,0.3l0.4,0.1l0,0l0,0.2c0,0,0,0,0,0.1v0.4C316.5,288.6,316.4,288.5,315.7,288.2 M315.4,285.3l4.8,0   c0,0.5,0,0.7-0.2,1.1c-0.1,0.2-0.2,0.3-0.4,0.5c-0.2,0.1-0.3,0.2-0.6,0.4c-0.3,0.2-0.4,0.3-0.6,0.5c-0.2,0.2-0.2,0.3-0.2,0.5v0   l0,0.1c0,0.1-0.1,0.1-0.1,0.2l0,0c-0.1,0.1-0.1,0.1-0.2,0.1l0,0l-0.3,0.1l-0.2,0.1l0,0c0-0.1,0-0.3,0-0.5v0c0,0,0-0.1,0-0.1   c0-0.1,0-0.1,0-0.2c0,0,0-0.1-0.1-0.2c0,0,0,0-0.1-0.1c-0.2-0.3-0.4-0.3-0.6-0.5c-0.2-0.2-0.4-0.3-0.6-0.4   c-0.2-0.1-0.2-0.2-0.4-0.5C315.4,285.9,315.4,285.8,315.4,285.3L315.4,285.3z"></path>
	<path class="st0" d="M307.6,273.9c0,0.1,0,0.2,0,0.3c-0.2,0.1-0.3,0.2-0.5,0.4c-0.1,0.2-0.1,0.3-0.1,0.5c0,0.1,0,0.3,0,0.4l0,0   l0.2,0.2l0,0c0.2,0.2,0.3,0.2,0.6,0.3c0.1,0,0.2,0,0.2,0h0.1c0,0.2-0.1,0.4-0.1,0.6c-0.1,0.2-0.1,0.5-0.1,0.6   c0,0.2-0.1,0.3-0.2,0.6c0,0,0,0,0,0h0.4c0.1-0.2,0.2-0.4,0.2-0.5c0-0.2,0.1-0.4,0.1-0.6c0-0.1,0-0.2,0.1-0.3   c0.1-0.3,0.2-0.6,0.2-0.8c0-0.1,0.1-0.2,0.1-0.2c0,0,0,0,0.1,0c0.1,0,0.2,0,0.3,0c0,0,0.1,0,0.2,0c0,0,0.1,0,0.1,0l0,0   c0.1,0,0.2,0.1,0.2,0.1c0.1,0.1,0.1,0.2,0.1,0.2v0.1c0,0.1,0,0.2-0.1,0.3c0,0-0.1,0.1-0.2,0.1c0,0-0.1,0-0.2,0l-0.1-0.1l0,0.2   c0,0.2,0,0.3-0.1,0.5c-0.1,0.3-0.2,0.6-0.3,0.8c-0.1,0.2-0.2,0.3-0.2,0.4h0.2c0.2-0.3,0.4-0.8,0.5-1.2c0-0.2,0.1-0.3,0.1-0.4   c0,0,0.1,0,0.1,0c0.1,0,0.2,0,0.3-0.1c0.2-0.1,0.2-0.3,0.2-0.4v-0.1c0-0.1-0.1-0.2-0.1-0.2l0.4,0h0l0.4-0.1c0.2,0,0.4-0.1,0.6-0.3   c0.2-0.2,0.2-0.3,0.3-0.5c0.1-0.2,0.1-0.3,0.1-0.5c0-0.1,0-0.2,0-0.3h-0.2c0,0.1,0,0.2,0,0.3c0,0.1,0,0.2-0.1,0.4   c-0.1,0.2-0.1,0.3-0.3,0.4c-0.2,0.2-0.3,0.2-0.5,0.2l-0.2,0.1l-0.5-0.1h0c-0.1,0-0.2,0-0.4-0.1c0,0,0,0-0.1,0c-0.1,0-0.1,0-0.2,0   s-0.1,0-0.2,0c0,0-0.1,0-0.2,0.1l0,0c0,0-0.1,0.1-0.1,0.1c-0.1,0.1-0.1,0.1-0.2,0.2c-0.2,0.1-0.2,0.2-0.3,0.2c0,0-0.1,0-0.2,0   c-0.2,0-0.2-0.1-0.4-0.2l-0.1-0.1c0-0.1,0-0.2,0-0.2c0-0.1,0-0.2,0.1-0.3c0-0.1,0.3-0.2,0.4-0.3c0,0,0,0,0.1,0c0.1,0,0.2,0,0.4,0   h0.1c0.2,0,0.3,0,0.4,0l0.4,0.1c0.2,0,0.3,0.1,0.5,0.1c0.1,0,0.2,0,0.3,0h0c0.2,0,0.3-0.1,0.5-0.2c0.1-0.1,0.1-0.2,0.1-0.3v-0.1   c0,0,0-0.1,0-0.1h-0.2c0,0,0,0.1,0,0.1v0.1c0,0.1,0,0.1,0,0.2c-0.1,0.1-0.2,0.2-0.3,0.2h0c-0.1,0-0.2,0-0.3,0c-0.2,0-0.3,0-0.5-0.1   l0,0l-0.4-0.1c-0.2,0-0.3,0-0.5,0h-0.1c-0.1,0-0.2,0-0.3,0c0,0,0,0,0,0.1l0,0l-0.1,0.1l0.1-0.1l0,0c0,0,0,0,0-0.1c0,0,0-0.1,0-0.1   c0-0.1-0.1-0.2-0.1-0.3L307.6,273.9z M307.9,273.9c0,0.1,0.1,0.2,0.1,0.3C308,274.1,308,274,307.9,273.9L307.9,273.9z M312.5,273.9   c0.1,0,0.2,0,0.3,0c-1.5,1.1-2.8,2.5-3.9,3.9h0.5c0,0,0,0,0,0c0.5-0.6,1-1.2,1.6-1.7c0.8-0.8,1.6-1.5,2.6-2.2L312.5,273.9z    M316,273.9C316,273.9,316,273.9,316,273.9l1.2,2.4c0.2,0.3,0.2,0.5,0.1,0.6c0,0-0.1,0.1-0.2,0.1l0,0.1c0,0,0,0,0.1,0   c0.2-0.1,0.4-0.2,0.4-0.2c0.1,0,0.2-0.1,0.5-0.2c0.1,0,0.1-0.1,0.1-0.1c0,0,0,0-0.1,0c-0.1,0-0.2,0.1-0.2,0.1   c-0.1,0-0.2-0.1-0.4-0.4l-0.9-1.6h0c0.1,0,0.8,0.3,1.5,0.5c0.6,0.2,1.4,0.5,1.8,0.6c0.1,0,0.1,0,0.2,0c0,0,0-0.1,0-0.2l-0.8-1.6   h-0.3l0.6,1h0c-0.1,0-0.9-0.3-1.3-0.5c-0.7-0.2-1.4-0.5-1.7-0.6L316,273.9z M321.1,273.9c0.1,0.4,0.2,0.7,0.3,0.9   c0,0.1,0,0.2-0.1,0.3c0,0-0.1,0-0.2,0.1c0,0-0.1,0-0.1,0.1c0,0,0,0,0.1,0c0.2,0,0.4-0.2,0.5-0.2c0.1,0,0.4-0.1,0.7-0.2   c0,0,0.1,0,0.1-0.1s0,0-0.1,0c-0.1,0-0.2,0-0.2,0.1c-0.1,0-0.2,0-0.2-0.2c-0.1-0.2-0.2-0.4-0.3-0.7L321.1,273.9z M323.9,273.9   l0.2,0.3c0.1,0.2,0.2,0.3,0.2,0.2c0.1,0,0.1-0.1,0.2-0.4c0,0,0-0.1,0-0.2L323.9,273.9z M326.4,273.9   C326.3,273.9,326.3,273.9,326.4,273.9c-0.1,0.1-0.2,0.1-0.2,0.1c0,0-0.1,0-0.1,0c0,0,0,0,0.1,0c0.2,0,0.5,0,0.6,0   c0.3,0,0.6,0,1.2,0c0.2,0,0.2,0,0.2-0.1c0,0,0,0,0,0L326.4,273.9z M329.2,273.9C329.2,273.9,329.2,273.9,329.2,273.9   c-0.1,0-0.2,0-0.2,0c0,0-0.1,0-0.1,0c0,0,0,0,0.1,0.1c0.2,0,0.5,0,0.5,0.1c0.1,0,0.4,0.1,0.6,0.1c0.1,0,0.1,0,0.1,0l0,0   c0,0-0.2,0-0.2,0c-0.1,0-0.1-0.1-0.1-0.1L329.2,273.9z M331.1,273.9c0.1,0.1,0.2,0.2,0.3,0.3c0.1,0.1,0.2,0.1,0.5,0.2l0.4,0l0.1,0   l0,0c0.2,0.1,0.3,0.2,0.6,0.3c0.2,0.1,0.5,0.1,0.7,0c0.4-0.1,0.5-0.4,0.6-0.6c0-0.1,0-0.1,0-0.2h-0.5c0,0.1,0,0.2,0,0.3   c-0.1,0.2-0.3,0.4-0.7,0.3c-0.3-0.1-0.5-0.3-0.5-0.6l0,0h-0.2c0,0.1-0.1,0.2-0.1,0.3l0,0.1l0,0c0,0-0.1,0-0.1,0   c-0.1,0-0.2-0.1-0.5-0.4l0,0L331.1,273.9z M335.6,273.9l-0.1,0.2c-0.2,0.4-0.3,0.7-0.4,0.9c0,0.1-0.1,0.2-0.2,0.2c0,0-0.1,0-0.2,0   c0,0-0.1,0-0.1,0c0,0,0,0,0.1,0.1c0.2,0.1,0.4,0.2,0.5,0.2c0.1,0,0.4,0.2,0.6,0.3c0,0,0.1,0,0.1,0c0,0,0,0-0.1-0.1   c-0.1,0-0.2-0.1-0.2-0.1c-0.1-0.1-0.1-0.2-0.1-0.3c0-0.2,0.2-0.5,0.3-0.9l0.2-0.4L335.6,273.9L335.6,273.9z M338.3,273.9   c-0.1,0.1-0.2,0.2-0.2,0.4l-0.4,0.7c-0.2,0.3-0.4,0.6-0.5,0.8c-0.1,0.1-0.2,0.2-0.2,0.2c0,0-0.1,0-0.2-0.1c0,0-0.1,0-0.1,0   c0,0,0,0.1,0,0.1c0.2,0.1,0.4,0.2,0.5,0.3c0.2,0.1,0.5,0.4,0.8,0.6c0.7,0.4,1.3,0.4,1.6,0.3c0.3-0.1,0.8-0.3,1.1-0.8   c0.3-0.5,0.3-0.9,0.2-1.2c-0.1-0.5-0.5-0.9-1-1.2h-0.4c0.3,0.2,0.6,0.5,0.8,1c0.1,0.3,0.1,0.7-0.2,1.2c-0.2,0.4-0.5,0.7-0.9,0.8   c-0.3,0-0.6,0-1-0.3c-0.3-0.2-0.4-0.4-0.4-0.5c0-0.1,0.1-0.2,0.1-0.3c0-0.1,0.2-0.4,0.5-0.8l0.3-0.5c0.1-0.2,0.3-0.5,0.4-0.6   L338.3,273.9z M342.6,273.9c0.9,0.7,1.8,1.4,2.6,2.2c0.6,0.6,1.1,1.1,1.6,1.8h0.5c-1.2-1.5-2.5-2.8-3.9-3.9c0.1,0,0.2,0,0.3,0   H342.6z M344.5,273.9c0,0.1,0,0.2,0,0.3c0,0.2,0,0.3,0.1,0.5l0,0c0.1,0.2,0.2,0.3,0.3,0.5c0.2,0.2,0.3,0.2,0.6,0.3l0,0l0.4,0.1h0   l0.4,0c-0.1,0.1-0.1,0.2-0.1,0.2l0,0c0,0,0,0.1,0,0.1c0,0.2,0.1,0.3,0.2,0.4c0.1,0.1,0.2,0.1,0.3,0.1c0,0,0.1,0,0.1,0   c0,0.1,0,0.3,0.1,0.4c0.1,0.4,0.4,1,0.5,1.2h0.2c0-0.1-0.1-0.2-0.2-0.4c-0.1-0.3-0.3-0.6-0.3-0.8c0-0.2-0.1-0.3-0.1-0.5l0-0.2   l-0.1,0.1c0,0-0.1,0-0.1,0c0,0-0.1,0-0.2-0.1c-0.1,0-0.1-0.2-0.1-0.3v-0.1c0,0,0.1-0.1,0.1-0.2c0.1-0.1,0.2-0.1,0.2-0.1   c0,0,0.1,0,0.1,0c0,0,0.1,0,0.2,0c0.1,0,0.2,0,0.3,0c0,0,0.1,0,0.1,0c0,0,0.1,0.1,0.1,0.2c0,0,0,0.1,0,0.1c0.1,0.2,0.1,0.6,0.2,1.1   c0.1,0.4,0.2,0.8,0.4,1.1h0.5c0,0,0,0,0,0c-0.2-0.4-0.3-0.7-0.4-1.2c-0.1-0.2-0.1-0.5-0.1-0.7c0.1,0,0.2,0,0.2,0h0   c0.3,0,0.5-0.1,0.7-0.3l0,0l0.2-0.2v0c0.1-0.1,0.1-0.3,0.1-0.4s0-0.3-0.1-0.4c-0.1-0.2-0.3-0.4-0.5-0.4l0,0l0,0   c0-0.1,0.1-0.2,0.1-0.3h-0.1c0,0.1,0,0.2-0.1,0.2c0,0.1,0,0.1-0.1,0.2v0l0,0c0,0,0,0,0,0.1l0,0c0,0,0,0,0-0.1l0,0v0   c0,0,0-0.1,0.1-0.2c0-0.1,0.1-0.2,0.1-0.2h-0.3c0,0.1-0.1,0.2-0.1,0.3v0c-0.1,0-0.2,0-0.2,0h-0.1c-0.2,0-0.3,0-0.5,0l-0.4,0.1l0,0   l0,0c-0.2,0-0.3,0.1-0.5,0.1c-0.1,0-0.2,0-0.3,0h0c-0.1,0-0.2,0-0.3-0.2c0-0.1,0-0.1,0-0.2V274c0,0,0-0.1,0-0.1h-0.2   c0,0,0,0.1,0,0.1v0.1c0,0.1,0,0.2,0.1,0.3c0.1,0.2,0.3,0.2,0.4,0.2h0c0.1,0,0.2,0,0.3,0c0.2,0,0.3,0,0.6-0.1l0,0l0.4-0.1l0,0   c0.2,0,0.3,0,0.4,0h0.1c0.1,0,0.2,0,0.3,0c0,0,0,0,0,0l0.2,0.1l0,0c0.2,0.1,0.2,0.1,0.3,0.2c0,0.1,0.1,0.2,0.1,0.2s0,0.1-0.1,0.2   l0,0l-0.1,0.2c-0.2,0.1-0.2,0.2-0.4,0.2h0c-0.2,0-0.2,0-0.4-0.2c0,0,0,0,0,0c0,0-0.1-0.1-0.1-0.1c0,0-0.1-0.1-0.1-0.1l0,0   c-0.1-0.1-0.2-0.1-0.2-0.1c-0.1,0-0.1,0-0.2,0s-0.1,0-0.2,0c0,0,0,0-0.1,0c-0.2,0-0.2,0-0.4,0.1h0l-0.5,0.1l-0.3-0.1   c-0.2,0-0.3-0.1-0.5-0.2c-0.2-0.1-0.2-0.2-0.3-0.4c-0.1-0.2-0.1-0.3-0.1-0.4c0-0.1,0-0.2,0-0.3L344.5,273.9z M314.2,277.8   c-0.1-0.1-0.1-0.1-0.2-0.2l-0.4-0.5c-0.4-0.5-0.5-0.6-0.6-0.8c-0.1-0.1-0.1-0.2,0-0.3l0.1-0.1l0-0.1c0,0,0,0-0.1,0   c-0.1,0.1-0.3,0.3-0.4,0.3c-0.1,0.1-0.3,0.2-0.5,0.4c0,0-0.1,0.1,0,0.1l0.1,0c0,0,0.1-0.1,0.2-0.1c0.1-0.1,0.2,0,0.3,0.1   c0.1,0.1,0.2,0.2,0.6,0.7l0.3,0.3L314.2,277.8z M316.1,277.8c0.1-0.1,0.1-0.2,0.1-0.3c0.1-0.5-0.2-0.9-0.5-1.3l-0.3-0.4   c-0.4-0.5-0.5-0.6-0.6-0.8c-0.1-0.1-0.1-0.2,0-0.3l0.1-0.1l0-0.1c0,0,0,0-0.1,0c-0.1,0.1-0.3,0.3-0.4,0.3c0,0-0.2,0.2-0.4,0.3   c0,0-0.1,0.1,0,0.1l0.1,0l0.1-0.1c0.1-0.1,0.2,0,0.3,0.1c0.1,0.1,0.2,0.2,0.6,0.7l0.3,0.4c0.3,0.4,0.5,0.7,0.5,1   c0,0.1-0.1,0.2-0.1,0.3L316.1,277.8z M318.8,277.8c2.4-1.5,5.2-2.4,8.3-2.6c0.5,0,0.8,0.4,0.8,0.8v1.8h0.4v-1.8   c0-0.5,0.4-0.8,0.9-0.8c3,0.2,5.8,1.1,8.2,2.6h0.7c-2.9-1.9-6.3-3-10-3c-3.7,0-7.1,1.1-10,3H318.8z M322.3,277.8L322.3,277.8   l1.4-0.1v0.1h0.2v-0.3h-1.8v0.3H322.3z M340.7,277.8l0.5-0.3h0.1l0.3,0.3h0.3l-0.5-0.4v0l1-0.6h0v0l-0.3,1h0.5   c0.2-0.7,0.4-1.3,0.5-1.5c0-0.1,0-0.2,0-0.2c0,0-0.1,0-0.2,0.1l-2.7,1.4c-0.2,0.1-0.4,0.2-0.5,0.1l-0.1-0.1h-0.1c0,0,0,0,0,0.1   c0,0,0.1,0.1,0.1,0.1L340.7,277.8z"></path>
	<path class="st0" d="M309.4,269.9c0,0.1-0.1,0.2-0.1,0.4c0,0.1,0,0.2,0,0.2c0,0.3,0.1,0.5,0.1,0.7c-0.7,0.1-1.3,0.6-1.7,1.2   c-0.2,0.3-0.2,0.6-0.2,0.9c0,0.1,0,0.2,0,0.3c0,0.1,0,0.2,0,0.3h0.3c0-0.1-0.1-0.2-0.1-0.3c0-0.1,0-0.2,0-0.3   c0-0.3,0.1-0.4,0.2-0.7c0.3-0.6,0.9-1,1.6-1.1l0.1,0l0-0.1c-0.1-0.3-0.2-0.6-0.2-0.9c0-0.1,0-0.1,0-0.2c0-0.1,0-0.3,0.1-0.4   L309.4,269.9z M309.7,269.9c0,0.1-0.1,0.3-0.1,0.4c0,0.1,0,0.1,0,0.2c0,0.3,0.1,0.5,0.2,0.9l0,0.1l-0.1,0c-0.8,0.1-1.3,0.5-1.6,1.1   c-0.2,0.3-0.2,0.5-0.2,0.7c0,0.1,0,0.2,0,0.3c0,0.1,0,0.2,0.1,0.3h0.1c0-0.1,0-0.2,0-0.3c0-0.1,0-0.2,0-0.3c0-0.2,0-0.4,0.2-0.7   c0.3-0.6,0.8-1,1.6-1c0.1,0,0.1,0,0.2-0.1c0,0,0-0.1,0-0.2c-0.1-0.3-0.2-0.5-0.2-0.8c0-0.1,0-0.1,0-0.2c0-0.1,0.1-0.3,0.1-0.4   L309.7,269.9z M311.2,269.9c-0.2,0.2-0.3,0.5-0.3,0.8c0,0.6,0.3,1.2,0.7,1.7c0.4,0.5,1,0.8,1.6,0.8c0.3,0,0.6-0.1,0.8-0.3   c0.4-0.3,0.6-0.7,0.6-1.2c0-0.3-0.1-0.7-0.3-1l0.7-0.8l0.2,0.2l0.1,0.1l0.1,0.1c0,0,0.1,0,0.1,0.1l0,0c0.1,0.1,0.1,0.2,0.2,0.2   c0,0,0.1,0.1,0.2,0.1c0,0,0.1,0,0.1,0l0.1-0.1l0,0c0,0,0,0,0.1-0.1c0.2-0.1,0.5-0.4,0.9-0.6h-0.4c-0.5,0.3-0.8,0.6-0.8,0.6l0,0   l-0.1,0.1h0l0,0c0,0-0.1-0.1-0.2-0.2c0,0,0,0-0.1-0.1c0.1-0.1,0.2-0.2,0.4-0.3h-0.3c-0.1,0.1-0.2,0.1-0.2,0.2l0,0l-0.2-0.2h-0.5   l-0.7,0.8l0,0.1c0.2,0.4,0.3,0.7,0.3,1c0,0.4-0.2,0.7-0.6,1c-0.2,0.2-0.5,0.3-0.7,0.3c-0.5,0-1.1-0.3-1.5-0.8   c-0.4-0.4-0.7-1-0.7-1.5c0-0.3,0.1-0.6,0.3-0.8L311.2,269.9z M313.3,269.9c0,0,0.1,0,0.1,0.1l0.1,0l0.1-0.1H313.3z M320.3,269.9   c-2.6,0.9-5.1,2.2-7.3,3.9v0c-0.3,0-0.4,0-0.7-0.1c-0.4-0.1-0.6-0.2-0.9-0.4l-0.2-0.2l0.1,0.3c0.1,0.2,0.1,0.3,0.1,0.5c0,0,0,0,0,0   h0.2c0,0,0,0,0-0.1c0-0.1,0-0.2,0-0.3c0.2,0.1,0.4,0.2,0.7,0.3c0.1,0,0.2,0,0.3,0.1h1c2.4-1.8,5.1-3.2,8-4L320.3,269.9z    M334.5,269.9c2.9,0.8,5.7,2.2,8,4h1c0.1,0,0.2,0,0.3-0.1c0.3-0.1,0.5-0.2,0.7-0.3c0,0.1,0,0.2,0,0.3c0,0,0,0,0,0.1h0.2   c0,0,0,0,0,0c0-0.2,0-0.3,0.1-0.5l0.1-0.3l-0.2,0.2c-0.3,0.2-0.5,0.3-0.9,0.4c-0.3,0.1-0.4,0.1-0.7,0.1v0c-0.2-0.1-0.3-0.2-0.4-0.3   l0.1,0l0.1,0l0,0l0.1-0.1l0,0l-0.1-0.1v0l-0.1,0l0,0c0,0,0-0.1-0.1-0.2c0,0-0.1-0.1-0.1-0.1l0.4-0.3h0h0c0,0,0,0,0,0   c0,0.1,0,0.1,0,0.2l0,0.1v0c0,0,0,0.1,0,0.2l0,0.1c0,0,0,0.1,0.1,0.1h0.1c0.1,0,0.1,0,0.2-0.1c0.2-0.1,0.5-0.3,0.5-0.3l0.5-0.4   l0.3-0.3l0,0l0,0c0,0,0.2-0.3,0.5-0.6c0,0,0.1-0.1,0.1-0.1c0,0,0.1,0,0.1,0c0.1,0,0.2,0,0.3,0c1.1,0,1.8,0.6,2.1,1.1   c0.1,0.2,0.1,0.3,0.2,0.4c0,0.1,0,0.2,0,0.3c0,0.1,0,0.2,0,0.2c0,0.1,0,0.2-0.1,0.4h0.3c0-0.1,0.1-0.3,0.1-0.3c0-0.1,0-0.2,0-0.3   c0-0.3-0.1-0.5-0.3-0.8c-0.3-0.6-1-1.1-1.9-1.3c1,0.2,1.6,0.7,1.9,1.3c0.2,0.3,0.3,0.5,0.3,0.8c0,0.1,0,0.2,0,0.3   c0,0.1,0,0.2-0.1,0.3h0.1c0-0.1,0.1-0.2,0.1-0.3c0-0.1,0-0.2,0-0.3c0-0.2,0-0.3-0.1-0.4c0-0.1-0.1-0.3-0.2-0.4   c-0.3-0.7-1.2-1.3-2.4-1.3c0.1-0.2,0.1-0.3,0.2-0.4c0.1-0.2,0.1-0.4,0.2-0.6l0-0.1v0H346c0,0,0,0,0,0.1l0,0c0,0.3-0.1,0.4-0.2,0.6   c0,0.1-0.2,0.4-0.5,0.7c-0.1,0.1-0.1,0.2-0.2,0.2c-0.3,0.3-0.5,0.6-0.5,0.6l-0.3,0.3l-0.5,0.4c0,0-0.1,0.1-0.2,0.2   c-0.1,0-0.2,0.1-0.2,0.1c0,0-0.1,0-0.1,0v0l0-0.1c0,0,0-0.1,0-0.1l0,0v0c0-0.1,0-0.3,0.1-0.4c0,0,0,0,0,0c0.1-0.2,0.1-0.3,0.1-0.3   l-0.2-0.1l0,0l0,0c0,0,0,0,0,0c0,0-0.1,0.2-0.1,0.3c0,0,0,0,0,0.1l-0.1,0.1l-0.1,0l0,0c-0.1,0-0.1-0.1-0.2-0.2c0-0.1,0-0.1-0.1-0.3   c0-0.1,0-0.2,0-0.2v-0.2l-0.1,0.1l0,0c-0.1,0-0.2,0.1-0.3,0.1h-0.1c-0.1,0-0.2-0.1-0.2-0.1l-0.1-0.1c0,0,0.1-0.1,0.2-0.2   c0.1-0.1,0.2-0.2,0.3-0.3c0.1-0.2,0.2-0.5,0.2-0.6v0c0-0.1,0-0.1-0.1-0.2c0,0,0-0.1-0.1-0.1c0-0.1,0-0.1,0-0.2c0,0,0-0.1,0-0.1   h-0.2c0,0,0,0.1,0,0.1c0,0.1,0,0.2,0,0.3c0,0.1,0.1,0.1,0.1,0.2l0,0.1l0,0c0,0-0.1,0.3-0.2,0.5l-0.1-0.1l-0.1-0.2l0-0.1v-0.1v-0.1   v0c0-0.1,0-0.1,0-0.2l0-0.1l0,0c0,0,0.1,0,0.1-0.1c0-0.1-0.1-0.1-0.2-0.1l-0.1,0c0,0,0-0.1,0.1-0.1c0,0,0,0,0,0h-0.2   c-0.2,0.4-0.7,0.6-1.2,0.6c-0.2,0-0.4,0-0.6-0.1l0,0c-0.7-0.3-1.1-0.4-1.5-0.4c-0.1,0-0.2,0-0.3,0l-0.4,0.1l-0.1-0.3h-0.2l0,0l0,0   l0.2,0.4l0,0.1l0.6-0.1c0.1,0,0.2,0,0.2,0c0.3,0,0.7,0.1,1.4,0.4l0,0c0.2,0.1,0.4,0.1,0.6,0.1c0.2,0,0.3,0,0.5-0.1l0,0.1   c0,0.1,0.1,0.2,0.2,0.2l0,0c0.1,0,0.1,0,0.2-0.1l0.1,0l0,0l0,0c0.1,0,0.1,0,0.2,0h0.1l0.1,0.1l0.2,0.2c-0.1,0.1-0.1,0.1-0.2,0.2   c-0.1,0-0.1,0.1-0.2,0.1c0,0-0.1,0.1-0.1,0.1l0,0l0,0.1c0,0.1,0,0.1,0.1,0.1c0.1,0.1,0.2,0.2,0.4,0.2l0.1,0c0.1,0,0.2,0,0.3,0   c0,0,0,0.1,0,0.1c0,0.1,0,0.2,0.1,0.3l0,0c0,0,0,0,0,0.1l-0.4,0.2c-0.1,0-0.1-0.1-0.2-0.1c-0.1,0-0.1,0-0.2,0l-0.1,0l0,0l0,0   c0,0-0.1,0-0.1,0l-0.1,0c-0.1,0-0.1,0.1-0.1,0.2l0,0.1c-1.8-1.2-3.7-2.2-5.8-2.9L334.5,269.9z M310.7,273.9c0-0.1-0.1-0.3-0.2-0.3   c0,0-0.1,0-0.1-0.1c0,0,0.1-0.1,0.1-0.2c0.1-0.1,0.1-0.2,0.1-0.3v0c0-0.1,0-0.2,0-0.3c-0.1-0.2-0.2-0.3-0.3-0.4   c-0.1,0-0.2-0.1-0.3-0.1c-0.1,0-0.2,0-0.2,0c-0.2,0-0.3,0.1-0.5,0.3c-0.1,0.1-0.1,0.2-0.1,0.2c0,0.1,0,0.2-0.1,0.2l0.2,0.1   c0-0.1,0.1-0.2,0.1-0.2s0-0.1,0.1-0.2c0.1-0.1,0.2-0.2,0.3-0.2c0.1,0,0.1,0,0.2,0c0.1,0,0.2,0,0.2,0.1c0.2,0.1,0.2,0.2,0.3,0.3   c0,0.1,0,0.1,0,0.2v0c0,0.1,0,0.2,0,0.2c-0.1,0.1-0.2,0.2-0.3,0.2l0,0l0,0.2h0h0c0.1,0,0.2,0,0.2,0.1c0.1,0.1,0.1,0.1,0.1,0.2   L310.7,273.9z M316.4,273.9c-0.1,0-0.2-0.1-0.2-0.1c-0.1,0-0.2-0.1-0.2,0c0,0,0,0.1,0,0.1H316.4z M319.2,273.9l-0.5-0.9   c-0.1-0.2-0.1-0.3,0-0.4l0.1-0.1c0,0,0.1,0,0-0.1c0,0-0.1,0-0.1,0c-0.2,0.1-0.3,0.2-0.4,0.2c-0.1,0-0.3,0.1-0.5,0.2   c-0.1,0-0.1,0-0.1,0.1c0,0,0,0,0.1,0c0,0,0.2-0.1,0.2-0.1c0.1,0,0.2,0,0.3,0.3l0.4,0.7L319.2,273.9z M321.6,273.9   c0-0.1,0-0.1-0.1-0.2l-0.2-0.7c-0.2-0.6-0.2-0.8-0.3-0.9c0-0.2,0-0.2,0.1-0.3c0,0,0.1,0,0.1-0.1l0-0.1c0,0,0,0-0.1,0   c-0.2,0-0.4,0.2-0.5,0.2s-0.4,0.1-0.5,0.2c-0.1,0-0.1,0-0.1,0.1l0.1,0c0,0,0.1,0,0.2,0c0.1,0,0.2,0,0.2,0.2c0,0.1,0.1,0.2,0.3,0.9   l0.2,0.7v0H321.6z M324.5,273.9c0.1-0.3,0.2-0.7,0.3-1.3c0.1-0.6,0.2-0.8,0.3-1.3c0.1-0.3,0.1-0.4,0.2-0.4c0.1-0.1,0.2-0.1,0.2-0.1   c0,0,0.1,0,0.1,0c0,0,0,0-0.1,0c-0.1,0-0.3,0.1-0.4,0.1c0,0-0.2,0-0.5,0.1c-0.1,0-0.1,0-0.1,0.1l0.1,0c0.1,0,0.1,0,0.2,0l0.1,0.1   c0,0,0,0.1,0,0.2c-0.1,0.3-0.4,1.8-0.5,2.3h0l-1.1-1.9c-0.1-0.2-0.2-0.3-0.2-0.3l0-0.1c0,0,0.1,0,0.2-0.1l0.1,0c0,0-0.1,0-0.1,0   c-0.2,0-0.4,0.1-0.5,0.1c-0.2,0-0.4,0.1-0.6,0.1c-0.1,0-0.1,0-0.1,0.1l0.1,0c0,0,0.1,0,0.2,0c0.2,0,0.3,0,0.4,0.3l1.4,2.2H324.5z    M328.2,273.9c0-0.1,0-0.4,0-0.5c0,0,0-0.1,0-0.1c0,0,0,0,0,0.1c0,0.2-0.1,0.3-0.2,0.3c-0.1,0.1-0.3,0.1-0.4,0.1   c-0.5,0-0.5-0.1-0.5-0.4c0-0.1,0-0.5,0-0.7v-0.3l0,0c0.1,0,0.5,0,0.6,0c0.2,0,0.2,0.1,0.2,0.2c0,0.1,0,0.1,0,0.2l0,0l0-0.1   c0,0,0-0.2,0-0.3c0-0.2,0-0.3,0-0.3l0,0l-0.1,0.1c0,0-0.1,0.1-0.2,0.1c-0.1,0-0.6,0-0.7,0l0,0l0-1.1l0,0c0.1,0,0.6,0,0.6,0   c0.2,0,0.3,0.1,0.3,0.2c0,0.1,0,0.1,0,0.2l0,0.1l0,0c0,0,0-0.2,0-0.3c0-0.2,0-0.3,0-0.3l0,0l-0.1,0c0,0-0.1,0-0.2,0   c-0.1,0-1,0-1.1,0c-0.1,0-0.4,0-0.6,0c-0.1,0-0.1,0-0.1,0c0,0,0,0,0.1,0c0.1,0,0.1,0,0.2,0c0.2,0,0.2,0.1,0.2,0.2c0,0.2,0,0.3,0,1   l0,0.8c0,0.4,0,0.8,0,1c0,0.1,0,0.1,0,0.2L328.2,273.9z M329.8,273.9c0,0,0-0.1,0-0.2c0-0.2,0-0.5,0.1-1v-0.1l0,0l0.4,0.1l0.1,0   c0,0.1,0.2,0.4,0.4,0.6c0.1,0.2,0.2,0.3,0.3,0.4h0.6c-0.2-0.3-0.5-0.7-0.8-1.3c0.5-0.3,0.7-0.6,0.7-0.9c0-0.3-0.1-0.5-0.2-0.6   c-0.2-0.2-0.5-0.3-0.8-0.3c-0.1,0-0.5,0-0.6-0.1c-0.1,0-0.4-0.1-0.6-0.1c-0.1,0-0.1,0-0.1,0c0,0,0,0,0.1,0c0.1,0,0.1,0,0.2,0   c0.1,0,0.2,0.1,0.2,0.3c0,0.2,0,0.3-0.1,0.9l-0.1,0.8c0,0.4-0.1,0.8-0.2,0.9c0,0.1,0,0.2-0.1,0.2L329.8,273.9z M332.5,273.9   c0-0.1,0-0.2,0-0.2l0-0.1c0,0-0.1,0-0.1,0.1c0,0,0,0.1-0.1,0.2L332.5,273.9L332.5,273.9z M334.3,273.9c0-0.3-0.1-0.6-0.5-1.1   l-0.1-0.1c-0.3-0.4-0.3-0.5-0.3-0.7c0.1-0.3,0.3-0.4,0.6-0.3c0.3,0.1,0.4,0.2,0.4,0.3c0.1,0.1,0,0.3,0,0.3c0,0,0,0.1,0,0.1   c0,0,0.1,0,0.1-0.1c0.1-0.3,0.2-0.5,0.2-0.5l0-0.1c-0.1-0.1-0.3-0.2-0.6-0.2c-0.6-0.2-1.1,0.1-1.2,0.5c-0.1,0.3,0,0.7,0.4,1.2   l0.2,0.2c0.2,0.2,0.2,0.4,0.3,0.5L334.3,273.9z M336.2,273.9l0.1-0.3c0.2-0.6,0.3-0.8,0.3-0.9c0.1-0.2,0.1-0.2,0.2-0.2   c0,0,0.1,0,0.1,0l0.1,0c0,0,0,0-0.1-0.1c-0.2-0.1-0.4-0.1-0.5-0.2c-0.1,0-0.4-0.2-0.5-0.2c-0.1,0-0.1,0-0.1,0l0,0.1   c0,0,0.1,0,0.2,0.1c0.1,0,0.1,0.2,0,0.3c0,0.1-0.1,0.3-0.3,0.9l-0.2,0.5L336.2,273.9z M338.9,273.9c0,0,0.1-0.1,0.1-0.1l0.1,0   c0,0,0.2,0.1,0.3,0.1c0,0,0,0,0.1,0h0.4c-0.1-0.1-0.2-0.1-0.3-0.2c-0.2-0.1-0.5-0.3-0.6-0.3c-0.1-0.1-0.3-0.2-0.5-0.3   c-0.1,0-0.1,0-0.1,0l0,0.1c0,0,0.1,0.1,0.2,0.1c0.1,0.1,0.1,0.2,0,0.3c0,0.1-0.1,0.2-0.2,0.4L338.9,273.9L338.9,273.9z    M345.6,273.9c0-0.1,0.1-0.1,0.1-0.2c0.1-0.1,0.2-0.1,0.3-0.1h0h0v-0.1v-0.1c-0.2,0-0.2-0.1-0.3-0.2l0,0c0-0.1,0-0.1,0-0.2v0   c0-0.1,0-0.1,0-0.2c0.1-0.2,0.1-0.2,0.3-0.3c0.1,0,0.2,0,0.2-0.1c0,0,0.1,0,0.2,0c0.2,0,0.2,0.1,0.3,0.2c0,0.1,0.1,0.1,0.1,0.2   c0,0.1,0,0.2,0.1,0.2l0.2-0.1c0-0.1-0.1-0.2-0.1-0.2c0-0.1-0.1-0.2-0.2-0.2c-0.1-0.2-0.3-0.2-0.5-0.3c-0.1,0-0.2,0-0.2,0   c-0.1,0-0.2,0-0.3,0.1c-0.2,0.1-0.3,0.2-0.3,0.4c0,0.1,0,0.2,0,0.3v0c0,0.1,0,0.2,0.1,0.3c0,0.1,0.1,0.1,0.1,0.2c0,0-0.1,0-0.1,0.1   c-0.1,0.1-0.2,0.2-0.2,0.3L345.6,273.9L345.6,273.9z M341.5,270.7L341.5,270.7L341.5,270.7c0.1,0,0.1,0,0.1,0h0.1c0,0,0.1,0,0.2,0   l0,0l0.1-0.1v0l0,0c0,0,0-0.1,0-0.1v0c0-0.1,0-0.1,0-0.2v-0.1l0.1-0.1l0,0l0,0h0l0,0l0,0c0,0,0,0-0.1,0.1l0,0.1c0,0.1,0,0.1,0,0.2   v0v0.1v0l0,0.1l0,0l0.2,0.2l0.1,0.2l0,0l-0.2-0.2l-0.2-0.2l0,0l-0.1,0l0,0l0,0c0,0-0.1,0-0.2,0l-0.1,0L341.5,270.7L341.5,270.7   C341.6,270.8,341.6,270.8,341.5,270.7L341.5,270.7c-0.1,0.1-0.1,0.1-0.1,0.1C341.5,270.8,341.5,270.8,341.5,270.7 M341.3,270.7   L341.3,270.7l-0.2,0c0.3-0.1,0.5-0.2,0.7-0.4v0.1c0,0,0,0.1,0,0.1v0v0.1l0,0.1l-0.1,0l-0.1,0c0,0-0.1,0-0.1,0l0,0l-0.1,0.1   C341.4,270.7,341.4,270.7,341.3,270.7 M342,270.1L342,270.1L342,270.1L342,270.1z M341.7,272.8L341.7,272.8h0.2c0.1,0,0.1,0,0.2,0   c0.1,0,0.1,0.1,0.2,0.1l0.1,0.1l0.1,0.1c0,0.1,0,0.1,0.1,0.2c0,0,0,0.1,0.1,0.1C342.3,273.1,342,273,341.7,272.8L341.7,272.8z    M342.5,273L342.5,273L342.5,273L342.5,273l-0.2-0.2c-0.1-0.1-0.2-0.1-0.2-0.1c-0.1,0-0.1,0-0.2,0c0,0-0.1,0-0.1,0h0l0,0l0-0.1h0   l0.1,0l0.1,0.1l0,0h0c0.1,0,0.1,0,0.2,0c0.1,0,0.1,0,0.2,0.1l0,0l0.4-0.3c0,0,0,0,0,0l-0.5,0.3l0,0C342.5,273,342.5,273,342.5,273   c0.1,0.1,0.1,0.1,0.2,0.2l0,0l0,0.1v0l0.1,0l0,0v0l-0.1,0l0,0l-0.1,0c0,0,0-0.1-0.1-0.1C342.5,273.1,342.5,273.1,342.5,273    M346.2,271.4c-0.1,0-0.3,0-0.4,0h-0.1c0,0-0.1,0-0.1,0h0l0,0c0,0,0,0,0,0c0,0,0.1,0,0.1,0h0.1C346,271.4,346.1,271.4,346.2,271.4    M312.6,270.5c-0.2,0-0.3,0-0.4,0.1c-0.1,0.1-0.2,0.3-0.2,0.5c0,0.2,0.1,0.5,0.3,0.7c0.2,0.2,0.5,0.4,0.8,0.4c0.1,0,0.3,0,0.4-0.1   c0.1-0.1,0.2-0.3,0.2-0.4c0-0.2-0.1-0.5-0.3-0.7C313.1,270.7,312.8,270.5,312.6,270.5 M313.3,271.9c-0.1,0-0.2,0.1-0.2,0.1   c-0.2,0-0.4-0.1-0.6-0.3c-0.2-0.2-0.2-0.4-0.2-0.5c0-0.1,0-0.2,0.1-0.3c0.1-0.1,0.2-0.1,0.3-0.1c0.2,0,0.4,0.1,0.6,0.3   c0.2,0.2,0.2,0.4,0.2,0.6C313.5,271.7,313.4,271.8,313.3,271.9 M330,272.3l0.2-1.3l0-0.1c0,0,0.1,0,0.2,0c0.3,0,0.6,0.3,0.6,0.9   c0,0.4-0.2,0.6-0.3,0.6c-0.1,0-0.2,0.1-0.3,0C330.3,272.5,330.1,272.5,330,272.3C330,272.4,330,272.4,330,272.3"></path>
	<path class="st0" d="M312.3,265.9c0,0.1-0.1,0.2-0.1,0.3c0,0.1,0,0.3,0.1,0.4c0,0,0.1,0.1,0.2,0.3l-3.7,0.2c-0.1,0-0.1,0-0.1,0.1   c0,0-0.1,0.1,0,0.2l0.1,2.2c0,0.1,0.1,0.2,0.2,0.2h0.4c0,0.1,0,0.1-0.1,0.2h0.3c0-0.1,0-0.2,0.1-0.2l0,0c0-0.1,0.1-0.2,0.1-0.2   c0,0,0,0,0,0l-0.2-0.1l0.2,0.1c0,0,0,0,0,0c0,0,0,0.1-0.1,0.2l0,0c0,0.1,0,0.1-0.1,0.2h0.1c0-0.2,0.1-0.3,0.1-0.3c0,0,0-0.1,0-0.1   l0.5,0l0-0.5l0.9,0l0,0.4v0.1l0.8,0v-0.1c0-0.5,0-0.8,0-0.9l1.8-0.1c0,0,0.1,0.1,0.1,0.1l0,0l0.4,0.5l-0.8,0.9   c-0.3-0.2-0.8-0.4-1.2-0.4c-0.3,0-0.6,0.1-0.9,0.3c-0.1,0.1-0.2,0.1-0.2,0.2h0.3c0,0,0,0,0.1-0.1c0.2-0.2,0.5-0.2,0.8-0.2   c0.4,0,0.7,0.1,1,0.3h0.3l0.8-0.9c0.2,0.3,0.4,0.5,0.6,0.7l0,0l0,0l-0.1,0.1h0.5l-0.1-0.1l0,0c0.1-0.1,0.2-0.2,0.3-0.2   c0.2-0.2,0.5-0.3,0.7-0.5c0.2-0.1,0.3-0.2,0.3-0.2l0.1,0l0-0.1v-0.1c0-0.2,0.1-0.4,0.3-0.5c0.1,0,0.1,0,0.2,0   c0.2,0,0.3,0.1,0.4,0.2l0,0.1l0.1,0c0,0,0.2-0.1,0.4-0.2c0.2-0.1,0.5-0.2,0.8-0.2c0,0,0,0,0,0c0.1,0,0.2,0,0.3-0.1v0v0l0.1,0.3   c-0.3,0-1.3,0.2-2,0.6c-0.6,0.3-1.1,0.7-1.5,1h0.3c0.3-0.3,0.8-0.6,1.3-0.8c0.4-0.2,0.9-0.3,1.3-0.4c0.3-0.1,0.5-0.1,0.6-0.1   c0,0,0,0.1,0,0.1l0,0c0,0.2,0,0.3,0,0.3v0c0,0-0.1,0-0.1,0l0,0c0,0-0.8,0.1-1.7,0.5c-0.3,0.1-0.5,0.3-0.7,0.4h0.4   c0.1-0.1,0.3-0.2,0.4-0.2c0.5-0.2,0.9-0.3,1.1-0.4c0.2,0,0.3-0.1,0.3-0.1c0.1,0,0.1,0,0.1,0c0.1,0,0.1,0,0.2,0l0.1-0.1l0-0.1   c0-0.1,0-0.2,0-0.3l0,0c0,0,0-0.1,0-0.1l0,0c0-0.1,0-0.3-0.1-0.5l1.3-0.1c0.2,0.4,0.3,0.7,0.6,0.9c0.3,0.2,0.6,0.3,0.9,0.3   c0.1,0,0.3,0,0.4,0c0.4-0.1,0.7-0.3,0.9-0.7c0.2-0.3,0.3-0.8,0.3-1.2c0-0.1,0-0.2,0-0.3c0-0.3-0.2-0.7-0.3-1h-0.2   c0.2,0.3,0.3,0.6,0.3,1c0,0.1,0,0.2,0,0.3c0,0.4-0.1,0.8-0.3,1.1s-0.4,0.5-0.8,0.6c-0.1,0-0.3,0-0.4,0c-0.3,0-0.5-0.1-0.8-0.3   c-0.2-0.2-0.4-0.5-0.6-0.9l0-0.1h-0.1l-1.4,0.1c0,0,0,0,0,0v0c0-0.3-0.1-0.5-0.2-0.9l1.6-0.1v-0.1c0-0.2,0.1-0.5,0.2-0.8h-0.2   c-0.1,0.2-0.2,0.5-0.2,0.7l-1.5,0.1c0-0.1,0-0.3-0.1-0.4l-0.1-0.3l0,0c0,0,0,0,0-0.1h-0.2c0,0,0,0,0,0.1c0,0,0,0,0,0c0,0,0,0-0.1,0   c-0.1,0-0.2,0-0.3,0c-0.1,0-0.3,0-0.4,0.1c-0.5,0.1-1,0.3-1.1,0.3c0,0,0,0-0.1-0.1c-0.1,0-0.1-0.1-0.2-0.1c-0.1,0-0.2-0.1-0.3-0.1   c-0.1,0-0.2,0-0.3,0.1c-0.2,0.1-0.3,0.3-0.4,0.5c0,0,0,0.1,0,0.2c0,0,0,0,0,0v0c-0.2,0.1-0.6,0.3-1,0.6c-0.1,0.1-0.3,0.2-0.4,0.3   c-0.1,0.1-0.2,0.1-0.2,0.2c0-0.1-0.1-0.1-0.1-0.2c-0.1-0.2-0.3-0.4-0.4-0.6c0.1-0.1,0.2-0.2,0.4-0.3c0.1-0.1,0.2-0.2,0.2-0.2   c0.4-0.3,0.9-0.7,1.5-1h-0.4c-0.6,0.3-1,0.7-1.4,1c-0.1,0.1-0.2,0.2-0.2,0.2c-0.1,0.1-0.1,0.1-0.2,0.2l-0.1-0.2l-0.1-0.2   c0,0,0,0,0.1,0c0.2-0.2,0.6-0.5,0.8-0.7c0.2-0.1,0.3-0.2,0.5-0.3h-0.4c-0.1,0.1-0.2,0.1-0.3,0.2c-0.3,0.2-0.7,0.6-0.9,0.8l0,0   c-0.2-0.3-0.3-0.5-0.3-0.5l0,0c-0.1-0.1-0.1-0.2-0.1-0.3c0-0.1,0-0.2,0-0.2L312.3,265.9z M325.7,265.9   C325.7,265.9,325.7,265.9,325.7,265.9l0.1,0.4c0,0.1,0,0.2-0.2,0.3c-0.1,0.1-0.2,0.1-0.3,0.1c-0.1,0-0.2,0-0.3-0.1   c-0.1-0.1-0.1-0.2-0.2-0.3l-0.1-0.1h-0.1l-0.5,0.2c0,0-0.1,0.1-0.1,0.1c0.1,0.2,0.1,0.4,0.2,0.7v0.1c0,0.2,0,0.5-0.1,0.6l0,0.1   l0.1,0c0.9,0,1.1-0.1,1.8-0.3c0.3-0.1,0.5-0.2,0.8-0.4c0.2-0.2,0.4-0.2,0.6-0.4l0-0.1l0-0.1c-0.2-0.2-0.3-0.3-0.6-0.6   c-0.2-0.2-0.2-0.3-0.3-0.4h-0.2c0.1,0.2,0.2,0.3,0.4,0.5c0.2,0.2,0.3,0.3,0.5,0.5c-0.2,0.1-0.3,0.2-0.5,0.3   c-0.3,0.2-0.4,0.3-0.7,0.3c-0.6,0.2-0.8,0.2-1.6,0.3c0-0.2,0.1-0.4,0.1-0.6v-0.1c0-0.3-0.1-0.5-0.1-0.7l0.3-0.1   c0,0.1,0.1,0.2,0.2,0.3c0.1,0.1,0.3,0.2,0.5,0.2c0.2,0,0.3,0,0.4-0.2l0,0c0.1-0.1,0.2-0.3,0.2-0.5v0l-0.1-0.3l0.2,0L325.7,265.9z    M327.1,265.9c0.3,0.4,0.6,0.6,1,0.8h0.1c0.3-0.3,0.6-0.5,0.9-0.8h-0.3c-0.2,0.3-0.4,0.5-0.7,0.6c-0.3-0.2-0.5-0.4-0.7-0.6H327.1z    M329.5,265.9c-0.1,0.1-0.2,0.2-0.3,0.4l0,0c-0.2,0.2-0.3,0.3-0.6,0.6l0,0.1l0,0.1c0.2,0.2,0.4,0.3,0.6,0.4   c0.3,0.2,0.5,0.3,0.7,0.4c0.7,0.2,0.8,0.3,1.8,0.3l0.1,0V268c-0.1-0.2-0.1-0.4-0.1-0.6v-0.1c0-0.3,0.1-0.5,0.2-0.7   c0,0,0-0.1-0.1-0.1l-0.5-0.2h-0.1l0,0.1c0,0.1-0.1,0.2-0.2,0.3c-0.1,0.1-0.2,0.1-0.3,0.1c-0.1,0-0.2,0-0.3-0.1   c-0.1-0.1-0.1-0.2-0.2-0.3l0.1-0.4c0,0,0,0,0,0h-0.4l0.2,0l-0.1,0.3v0c0,0.2,0.1,0.3,0.2,0.5c0.1,0.1,0.3,0.2,0.4,0.2   s0.3-0.1,0.5-0.2c0.1-0.1,0.2-0.2,0.2-0.3l0.3,0.1c0,0.2-0.1,0.4-0.1,0.7v0.1c0,0.2,0,0.4,0.1,0.6c-0.8,0-0.9-0.1-1.6-0.3   c-0.3-0.1-0.4-0.2-0.7-0.3c-0.2-0.1-0.3-0.2-0.5-0.3c0.2-0.2,0.3-0.3,0.5-0.5c0.2-0.2,0.3-0.3,0.4-0.5L329.5,265.9z M332.1,265.9   c-0.1,0.1-0.1,0.2-0.1,0.3v0c0,0.1,0,0.1,0,0.2l0,0.1l0.2-0.1c0,0.1,0.1,0.1,0.1,0.2c0,0.1,0.1,0.2,0.1,0.3c0,0,0,0.1,0,0.1   c0,0,0,0.1,0,0.1l0,0c0,0.1,0,0.2-0.1,0.3l-0.1,0.1l0.1,0.1c0.2,0.2,0.3,0.3,0.5,0.6c0.1,0.1,0.2,0.2,0.2,0.3l0,0.2l0,0.4v0.1   c-0.4-0.1-0.8-0.2-1.2-0.2v0c0,0,0-0.1-0.1-0.1c-0.8-0.2-1.2-0.3-2-0.6c-0.4-0.2-0.7-0.3-1.1-0.5h-0.1L328,268l-0.6-0.3h-0.1   c-0.4,0.2-0.7,0.3-1.1,0.5c-0.8,0.3-1.2,0.4-2,0.6c0,0-0.1,0.1-0.1,0.1c0,0,0,0,0,0c-1.4,0.2-2.7,0.5-3.9,1h1.3   c2.1-0.6,4.2-0.9,6.5-0.9s4.4,0.3,6.5,0.9h1.3c-0.7-0.2-1.3-0.4-2-0.6V269v0l-0.2-0.3c-0.1-0.2-0.1-0.4-0.2-0.6   c-0.1-0.2-0.2-0.3-0.3-0.5c0.1-0.1,0.2-0.2,0.2-0.2c0-0.1,0.1-0.1,0.1-0.2c0-0.1,0.1-0.2,0.1-0.3c0,0,0,0,0,0.1   c0.1,0.2,0.1,0.2,0.1,0.4v0.1l0,0c0.1,0.1,0.2,0.2,0.3,0.3c0.1,0.1,0.2,0.2,0.3,0.3l0.2,0.2l0,0l0.3-0.1l0.8,0.2   c0.2,0.3,0.4,0.5,0.6,0.6l0,0l0,0c0.9,0.5,1.1,0.8,1.3,1h0.2l0-0.1c-0.2-0.3-0.5-0.6-1.3-1.1c-0.5-0.3-0.7-0.8-0.7-1.2   c0-0.2,0-0.3,0.1-0.5c0.1-0.2,0.4-0.5,0.7-0.8l0,0c0.1-0.1,0.2-0.2,0.3-0.3h-0.6l0,0.2c-0.2,0.2-0.5,0.5-0.6,0.7   c0,0.1-0.1,0.2-0.1,0.3l-0.2,0.2l0,0c-0.1,0.1-0.2,0.2-0.4,0.3h-0.1c-0.1,0-0.1,0-0.2,0c0,0,0,0-0.1,0l-0.4-0.3c0,0,0-0.1,0-0.2   c0-0.1,0.1-0.2,0.1-0.3c0-0.1,0-0.2,0-0.3c0-0.1,0-0.1,0-0.2l0-0.1l0,0l0,0l0,0c0,0,0.1-0.1,0.1-0.1c0.1-0.1,0.2-0.2,0.3-0.3h-0.3   c0,0-0.1,0.1-0.2,0.1c0,0-0.2,0.1-0.2,0.1l-0.1,0l0,0.1c0,0.1,0.1,0.1,0.1,0.1l0,0l0,0l0,0.1h0c0,0,0,0.1,0,0.2c0,0.1,0,0.2,0,0.2   c0,0,0,0.1,0,0.2c0,0.1-0.1,0.2-0.1,0.2l0,0.1l0.5,0.5h0c0,0,0.2,0,0.3,0l0.1,0c0.1,0,0.2-0.1,0.3-0.2v0.1v0l0.1,0.2l-0.5-0.1h0   l-0.2,0.1l-0.2-0.2l0,0c-0.1-0.1-0.2-0.2-0.3-0.2c-0.1-0.1-0.2-0.2-0.3-0.2c0-0.2,0-0.3-0.2-0.5c-0.1-0.1-0.1-0.2-0.2-0.3l-0.2-0.1   v0.2c0,0.2,0,0.3-0.1,0.4c0,0.1-0.1,0.1-0.1,0.2c0,0-0.1,0.1-0.2,0.2l-0.1,0l0,0.1c0.1,0.2,0.2,0.3,0.3,0.6   c0.1,0.2,0.2,0.3,0.2,0.6l0,0l0.2,0.3v0.1l-0.3-0.1l0-0.4v0l0-0.2v0l0,0c-0.1-0.2-0.2-0.2-0.2-0.4l0,0c-0.2-0.2-0.3-0.4-0.5-0.6   c0.1-0.1,0.1-0.2,0.1-0.3c0-0.1,0-0.1,0-0.2c0,0,0-0.1,0-0.1l0,0c0-0.2-0.1-0.2-0.1-0.4c0-0.1-0.1-0.2-0.2-0.3l0-0.1l-0.2,0.1   c0-0.1,0.1-0.1,0.2-0.2l0.1,0l0,0c0,0,0,0,0,0L332.1,265.9z M337.9,265.9l0.4,0.9l-1,1.3l0,0.1l0,0l1.7,0l1,1.3h0.1l0.4-1.6   l1.1-0.3l0.7,0.3c-0.2,0.3-0.1,0.5-0.2,0.9l0,0c0,0.3-0.1,0.8-0.2,1l0,0l0,0h0.2c0,0,0-0.1,0-0.2c0,0,0,0,0.1,0.1   c0.1,0,0.1,0,0.2,0h0c0,0,0,0,0,0.1h0.2c0,0,0,0,0-0.1c0-0.1,0-0.1,0-0.1l0-0.1l-0.1,0h0h-0.1l-0.1,0l0,0c0,0,0,0-0.1-0.1l0-0.1   l0,0l0-0.4l0.1-0.6c0,0,0.1-0.3,0.2-0.5c0-0.1,0.2-0.3,0.3-0.4c0.1-0.1,0.2-0.2,0.2-0.2c0,0,0.1-0.1,0.2-0.2c0.1,0,0.1-0.1,0.2-0.2   c0.2-0.1,0.3-0.2,0.4-0.2c0,0,0.1,0,0.1,0c0,0,0.1,0.1,0.1,0.1c0,0,0,0.1,0,0.2c0,0.1,0,0.1,0,0.2c0,0.1,0,0.2,0,0.3   c0,0.2-0.1,0.3-0.2,0.5c0,0,0,0.1,0,0.1c0,0.1-0.1,0.2-0.1,0.2l-0.1,0.2l0.4-0.1l0.1,0l0,0l0.1,0l0.1,0v-0.1v0v0v0l0,0l0,0l0,0l0,0   l0.1,0l0,0l0,0l0,0l0.1,0l0.1,0l0.1,0l0,0h0l0.1,0l0-0.1c0-0.1,0-0.1-0.1-0.2c0-0.1-0.1-0.1-0.2-0.2c-0.1,0-0.1-0.1-0.2-0.1l-0.1,0   l0,0l0,0l0-0.1l0,0h0.1h0h0l0.1-0.1l0,0l0,0l0,0l0.1-0.1h0h0.1h0h0h0l0.1,0l0.1,0.1l0,0l0,0l0,0.1l0.2-0.1l0.2,0.4l-0.1,0l-0.1,0   v0.1l0,0.1c0,0.1,0,0.1-0.1,0.1l-0.1,0.1l0,0h0l-0.1,0.2l-0.1,0.1l0.1,0.1l0,0l0.1,0.2c0,0,0,0-0.1,0.1L345,269l-0.1,0l-0.1,0   l0.2,0.3l0,0.1l0.1,0c0,0,0.1,0,0.2-0.1c0.1,0,0.1-0.1,0.2-0.1c0,0,0,0,0.1,0c0.1,0,0.1,0,0.2,0h0c0.1,0,0.1,0,0.2,0.1   c0.1,0.1,0.1,0.1,0.1,0.2c0,0.1,0,0.1,0,0.2v0c0,0,0,0.1,0,0.1h0.3c0,0,0-0.1,0-0.1v-0.1c0-0.1,0-0.2-0.1-0.3   c0-0.1-0.1-0.2-0.2-0.3l0,0c-0.2-0.1-0.3-0.2-0.5-0.2l0,0c0-0.1,0-0.1,0-0.2l0-0.1l0.1-0.1l0,0l0.1-0.2l0.3-0.1   c0.1,0,0.2-0.2,0.1-0.3l-0.3-1.1c0,0,0-0.1-0.1-0.1c0,0-0.1,0-0.2,0l-0.3,0.1l-0.2-0.1l-0.1,0h-0.5l-0.1,0l-0.3,0.2c0,0,0,0,0,0   c0-0.1,0-0.1,0-0.2c0,0,0-0.1,0-0.1c0,0,0-0.1,0-0.2l-0.2-0.6h-0.3v0l0.1,0.5l0,0.1c0,0,0,0-0.1,0h0c0,0,0,0-0.1,0   c-0.2,0-0.3,0.1-0.5,0.2c-0.4,0.2-0.7,0.6-0.9,1l-0.5-0.2l0.3-0.1l0-0.1v0l-1.4-0.9l0-0.6h-0.2v0.6l-0.4,0.2l-0.1,0.1l-0.1,0.1l0,0   l-0.1,0l0,0l0,0l0-0.1l0-0.1l0.3-0.7H340l-0.3,0.6l0,0l0,0.1l0,0.1l0,0l0,0.1l0-0.1l0,0l0-0.1l0-0.1l0,0l-0.1-0.5l0,0H339l0.2,0.1   l0.1,0.3l0,0.1l0,0.1l0,0l0,0.2l-0.4-0.4l0,0l-0.2-0.2l0,0l-0.2-0.2l0,0l-0.1-0.1h-0.3l0,0l0.2,0.2l0,0l0.8,0.7l-0.8-0.1l-0.3-0.8   l0-0.1L337.9,265.9z M339.9,267.1l1.1,0.2l0,0l0.3,0l0,0l0.3,0l0,0l-0.1,0l0,0l-0.2,0l0,0l-0.8,0.2L339.9,267.1z M340.3,267.8   l-0.3,1.1l-0.3-1.6L340.3,267.8z M341.1,267.1L341.1,267.1l-0.3,0l-0.3,0l0,0l-0.6-0.1l0.2-0.1l0.1-0.1l0.1-0.1l0,0l0.3-0.2v0   l1,0.6L341.1,267.1z M339.5,267.3l0.3,1.6l-0.6-0.9L339.5,267.3z M339.4,267.2l-0.3,0.7l-1.1,0L339.4,267.2z M337.8,267.8l0.6-0.8   l0.9,0.1L337.8,267.8z M318.9,267.8C318.9,267.8,318.8,267.8,318.9,267.8c-0.3,0.1-0.6,0.2-0.9,0.2c-0.2,0-0.3,0.1-0.3,0.1   c0,0-0.1-0.1-0.1-0.1c-0.1-0.1-0.3-0.1-0.4-0.1c-0.1,0-0.2,0-0.2,0c0,0,0,0-0.1,0c-0.1,0-0.1,0.1-0.2,0.1c-0.1,0.1-0.2,0.2-0.2,0.4   c0,0.1,0,0.1,0,0.2c0,0,0,0,0,0.1c-0.1,0-0.3,0.2-0.5,0.3c-0.2,0.1-0.3,0.2-0.5,0.4c-0.1,0.1-0.2,0.2-0.3,0.3v0   c-0.2-0.2-0.4-0.5-0.6-0.7c0,0,0,0,0,0c0.1-0.1,0.2-0.2,0.3-0.3c0.2-0.1,0.3-0.3,0.5-0.4c0.1-0.1,0.2-0.2,0.3-0.2   c0.3-0.2,0.6-0.4,1-0.6c0.3-0.1,0.6-0.2,0.9-0.3c0.1,0,0.2-0.1,0.4-0.1c0.1,0,0.2,0,0.3-0.1c0,0,0,0,0,0c0.2,0,0.4-0.1,0.6-0.1   c0.1,0,0.1,0,0.2,0c0,0,0,0.1,0,0.1c0.1,0.3,0.1,0.6,0.2,0.9C319.1,267.8,319,267.8,318.9,267.8 M318.2,266.7c0,0-0.1,0-0.1,0   c-0.1,0-0.2,0-0.3,0.1c-0.2,0-0.4,0.1-0.6,0.2c-0.2,0.1-0.5,0.2-0.7,0.3c-0.3,0.2-0.6,0.3-0.8,0.5c-0.2,0.1-0.3,0.2-0.4,0.3   c-0.1,0.1-0.2,0.2-0.3,0.2c-0.1,0.1-0.2,0.2-0.3,0.3s-0.2,0.2-0.2,0.2l0,0l-0.2-0.3l0,0c0.1,0,0.1-0.1,0.2-0.2   c0.1-0.1,0.2-0.2,0.2-0.2c0.1-0.1,0.1-0.1,0.2-0.2c0.2-0.2,0.5-0.3,0.7-0.5c0.2-0.1,0.3-0.2,0.3-0.2l0,0l0,0v0v0V267v0   c0-0.1,0-0.1,0-0.2c0-0.1,0.1-0.2,0.3-0.3c0.1,0,0.1,0,0.2,0c0,0,0.1,0,0.1,0c0.1,0,0.1,0,0.2,0.1c0,0,0.1,0,0.1,0.1l0,0.1l0.1,0   c0,0,0.2-0.1,0.4-0.2c0.2-0.1,0.5-0.2,0.8-0.2c0,0,0.1,0,0.2,0c0.1,0,0.2,0,0.3-0.1s0.2,0,0.3,0l0,0l0,0.2l0,0.2   C318.8,266.6,318.5,266.6,318.2,266.7 M309.3,269.3l-0.1-1.8l3.8-0.2c0,0,0.1,0,0.1,0c0.2,0.3,0.4,0.6,0.6,0.8l-1.8,0.1v0.1   c0,0,0,0.3,0,0.9l-0.4,0l0-0.4v-0.1l-1.3,0.1l0,0.5l-0.4,0c0,0,0,0,0,0L309.3,269.3z M331.3,268.8c-1-0.1-2.1-0.2-3.2-0.2   c-1.1,0-2.2,0.1-3.2,0.2c0.5-0.2,0.9-0.3,1.5-0.5c0.4-0.2,0.7-0.3,1.1-0.5l0.6,0.3h0.1l0.6-0.3c0.4,0.2,0.6,0.3,1.1,0.5   C330.4,268.5,330.8,268.7,331.3,268.8 M321.8,267.8c0.1,0.2,0.3,0.2,0.5,0.2h0.1c0.2,0,0.3-0.2,0.4-0.3c0.1-0.2,0.2-0.3,0.2-0.6   c0-0.1,0-0.1,0-0.2c0-0.2-0.1-0.4-0.2-0.6c-0.1-0.2-0.3-0.2-0.5-0.2h-0.1c-0.2,0-0.3,0.2-0.4,0.3c-0.1,0.2-0.2,0.3-0.2,0.5   c0,0.1,0,0.1,0,0.2C321.6,267.4,321.7,267.6,321.8,267.8 M321.8,266.6c0.1-0.1,0.2-0.2,0.3-0.2h0.1c0.1,0,0.2,0.1,0.3,0.2   c0.1,0.1,0.2,0.3,0.2,0.5c0,0,0,0.1,0,0.2c0,0.2,0,0.3-0.1,0.5c-0.1,0.1-0.2,0.2-0.3,0.2h-0.1c-0.1,0-0.2-0.1-0.3-0.2   c-0.1-0.1-0.2-0.3-0.2-0.5c0,0,0-0.1,0-0.2C321.7,266.8,321.8,266.7,321.8,266.6 M345.1,267.4l-0.2,0.2h0.3L345.1,267.4z"></path>
	<path class="st0" d="M312.7,265.9c0.1-0.1,0.2-0.2,0.3-0.3l0,0c0.3-0.2,0.7-0.6,1.1-0.9c0.2-0.1,0.3-0.3,0.3-0.5c0-0.1,0-0.2,0-0.2   c0-0.1-0.1-0.2-0.1-0.3c0-0.2,0.1-0.5,0.3-0.5c0.1,0,0.2-0.1,0.3-0.1c0.2,0,0.5,0.2,0.6,0.4c0.1,0.2,0.3,0.3,0.5,0.3   c0.1,0,0.2,0,0.2,0c0.6-0.2,1.1-0.2,1.5-0.3l0,0c0,0,0.1,0,0.2,0c0.1,0,0.2,0,0.3,0.1c0.1,0,0.1,0.1,0.2,0.2c0,0,0,0,0,0.1l0,0   c0,0,0,0.1,0.1,0.2c0,0.1,0,0.2,0.1,0.3l0,0c-0.3,0-0.8,0.1-1.1,0.2c-0.5,0.1-1,0.3-1.1,0.3c-0.1-0.2-0.3-0.2-0.5-0.2   c-0.1,0-0.2,0-0.3,0.1c-0.3,0.1-0.4,0.4-0.4,0.6c0,0,0,0,0,0.1c-0.1,0.1-0.4,0.3-0.7,0.5h0.4c0.1,0,0.1-0.1,0.2-0.1   c0.2-0.1,0.3-0.2,0.3-0.2l0.1,0v-0.1l0-0.1c0-0.2,0.1-0.4,0.3-0.5c0.1,0,0.2,0,0.2,0c0.2,0,0.3,0.1,0.4,0.2l0,0.1l0.1,0   c0,0,0.2-0.1,0.4-0.2c0.2-0.1,0.5-0.2,0.8-0.2c0.3-0.1,0.7-0.1,1-0.2c0.1,0,0.1,0,0.2,0l0,0.1l0,0.1l0,0.1c-0.1,0-0.2,0-0.3,0   c-0.1,0-0.2,0-0.3,0c-0.6,0.1-1.4,0.3-2.2,0.6c-0.2,0.1-0.4,0.2-0.5,0.3h0.4c0.1,0,0.2-0.1,0.2-0.1c0.7-0.3,1.3-0.5,1.9-0.6   c0.1,0,0.2,0,0.3,0c0.2,0,0.4-0.1,0.6-0.1c0,0.2,0.1,0.4,0.2,0.6c0,0.1,0,0.1,0,0.2h0.2c0,0,0-0.1,0-0.1l1.3-1.4   c0.1,0.1,0.3,0.3,0.6,0.6l0.1,0.1l0.6-0.6l-0.4-0.3l0.6-0.7l0.3,0.3l0.1,0.1l0.8-0.9c0,0,0.1,0,0.1,0c0.1,0,0.1-0.1,0.1-0.2   c0-0.2,0-0.4,0-0.5c0-0.7,0.2-1.1,0.5-1.4c0.3-0.3,0.7-0.4,1.2-0.4c0.5,0,0.9,0.1,1.1,0.3c0.1,0,0.1,0.1,0.2,0.2   c0,0.1,0.1,0.1,0.2,0.2c0.1,0.1,0.1,0.2,0.2,0.2c0,0.1,0.1,0.1,0.1,0.2l0,0l0,0c0,0.1,0.1,0.1,0.1,0.1l0,0h1.2h1.1h0.1l0,0v0h-0.1   c0.1,0,0.2,0,0.3-0.1c0.1-0.2,0.1-0.3,0.2-0.5c0,0,0-0.1,0.1-0.1c0.1-0.1,0.2-0.2,0.3-0.3c0.3-0.2,0.7-0.3,1.1-0.3   c0.4,0,0.8,0.1,1.2,0.4c0.3,0.3,0.5,0.7,0.5,1.4c0,0.1,0,0.3,0,0.4c0,0.1,0,0.2,0.1,0.2c0.1,0,0.2,0,0.2,0l0.6-0.5l0,0l-0.1,0.1   l-0.1,0.1l0.3,0.1l0,0h0c0,0.2,0.1,0.3,0.2,0.4l0,0c0.1,0.2,0.1,0.3,0.2,0.4l0,0.1c0,0.1,0,0.1-0.1,0.2c0,0.1-0.1,0.1-0.1,0.2   c-0.2,0.2-0.4,0.3-0.6,0.5c-0.2,0.2-0.3,0.3-0.5,0.4c-0.2,0.1-0.4,0.2-0.6,0.4c-0.2,0.2-0.3,0.4-0.3,0.6c0,0-0.1,0-0.1,0.1h0.3   c0.1-0.2,0.2-0.3,0.3-0.5c0.2-0.2,0.3-0.3,0.5-0.4h0l0,0c0.2-0.2,0.3-0.3,0.5-0.5c0.2-0.2,0.3-0.3,0.6-0.5l0,0v0   c0-0.1,0.1-0.2,0.1-0.2c0-0.1,0.1-0.2,0.1-0.2l0,0l-0.1-0.2l0,0l0,0c-0.1-0.2-0.2-0.2-0.2-0.4c-0.1-0.2-0.1-0.3-0.2-0.4l0-0.1   l-0.2,0l-0.1,0l0,0l0,0l0-0.1l-0.1-0.2l0.4-0.3l0,0l0.2,0.2l0,0h0h0.1l0.2,0l0.1,0.1l0,0l0.5,0.2v0.1v0l-0.1,0l-0.3,0l-0.1,0   l0.1,0.1c0,0.1,0.1,0.1,0.1,0.2c0.1,0.1,0.2,0.2,0.3,0.3c0.2,0.1,0.2,0.2,0.4,0.3l0,0l0.2-0.2l0.2-0.1h0.3l0.3,0.2   c0.1,0.2,0.2,0.2,0.2,0.4c0,0.2,0,0.2,0,0.3v0.1l-0.1,0.2l-0.1-0.2l0.1-0.2v0v0c0,0,0-0.1,0-0.2c0-0.1,0-0.2-0.1-0.3   c-0.1-0.1-0.2-0.1-0.3-0.1l0,0c-0.1,0-0.2,0-0.2,0.1c-0.1,0-0.1,0.1-0.1,0.1l0,0l-0.2,0.2l0,0v0.1c0,0.1,0,0.1,0,0.2   c0,0.1,0,0.2,0,0.2c0,0.2-0.1,0.3-0.2,0.4l-0.1,0.2l0.2,0c0.2,0,0.2,0,0.4,0l0.1,0c0,0,0,0,0.1,0.1l0.2,1.1l-0.1,0.1l-0.1-0.3l0,0   c0-0.1,0-0.1,0-0.2v-0.2c0-0.1,0-0.3-0.1-0.3c0,0-0.1,0-0.1,0c-0.1,0-0.2,0-0.3,0.1c-0.3,0.1-0.4,0.2-0.5,0.2h0l0,0   c-0.2,0.3-0.3,0.4-0.5,0.6c-0.1,0.1-0.2,0.2-0.3,0.2h0.3c0,0,0.1-0.1,0.1-0.1c0.2-0.2,0.3-0.3,0.5-0.6c0.2,0,0.3-0.2,0.5-0.2   c0.1,0,0.2-0.1,0.2,0c0.1,0.1,0.1,0.1,0.1,0.2c0,0,0,0.1,0,0.2c0,0,0,0.1,0,0.2l0,0l0.1,0.4h0.6c0,0,0.1-0.1,0.1-0.1   c0.1-0.1,0.2-0.2,0.2-0.3l0.7,0.4l0,0.1h0.2l0-0.1l0,0l0-0.1l0.2,0.2h0.3l-0.3-0.3l0.8,0.3h0.5l0.8-0.7l-0.3,0.7h0.2l0.3-0.5v0.5   h0.2v-1.1l-0.1,0h0l0,0l-1.3,1l-1.6-0.6l-0.1,0.1l0,0l0.1,0.2l-0.5-0.3c0.2-0.4,0.2-0.7,0.2-1.1c0-0.3,0-0.6-0.2-0.8   c0,0,0-0.1,0-0.1l0.5-0.2l0.1,0c0,0,0,0,0.1,0.1c0.1,0.1,0.3,0.3,0.5,0.4c0.4,0.2,0.6,0.1,0.9,0.1c0.2,0,0.5,0.1,0.7,0.2l0,0   c0,0,0.1,0,0.1,0c0.1,0,0.2-0.1,0.2-0.2l0,0c0-0.1,0-0.1,0-0.2v0c0-0.3,0.3-0.5,0.6-0.5c0.1,0,0.2,0,0.3,0.1   c0.2,0.1,0.4,0.4,0.4,0.6c0,0.1,0,0.3-0.2,0.4l0,0l0,0c0,0-0.1,0-0.1,0.1c0,0,0,0.1,0,0.1c0,0.1,0.1,0.2,0.2,0.2l0,0l0,0   c0.2,0.1,0.5,0.3,0.6,0.4c0.2,0.2,0.3,0.4,0.6,0.6c0.2,0.1,0.5,0.2,0.6,0.2c0,0,0.1,0,0.1,0l0,0.1h0.3l-0.1-0.2   c0-0.1-0.1-0.2-0.2-0.2h0c-0.1,0-0.4-0.1-0.7-0.2c-0.2-0.1-0.2-0.2-0.3-0.2c-0.1-0.1-0.2-0.2-0.3-0.3c-0.2-0.2-0.4-0.3-0.6-0.5l0,0   c0.2-0.2,0.2-0.4,0.2-0.6c0-0.3-0.2-0.7-0.6-0.9c-0.2-0.1-0.3-0.1-0.4-0.1c-0.2,0-0.4,0.1-0.6,0.2c-0.2,0.1-0.3,0.3-0.3,0.5v0   c-0.2-0.1-0.5-0.2-0.8-0.2l0,0c-0.2,0-0.3,0-0.4,0c-0.1,0-0.2,0-0.4-0.1c-0.2-0.1-0.3-0.2-0.4-0.3c-0.1,0-0.1-0.1-0.1-0.1l0,0l0,0   c-0.1-0.1-0.2-0.1-0.2,0l-0.6,0.3l-0.6-0.4l-0.1,0l-0.3,0h-0.1l-0.3,0.1l-0.1,0l-0.1,0.1l0,0l0.1-0.1c0,0,0-0.1,0-0.1v-0.2v-0.1   l-0.1-0.2c0-0.1-0.1-0.1-0.1-0.1l-0.5-0.2l0-0.1c0,0-0.1-0.1-0.1-0.1l-0.2,0h-0.1l-0.2-0.2c-0.1-0.1-0.2-0.1-0.3,0l-1,0.8   c0-0.7-0.3-1.3-0.6-1.6c-0.4-0.4-0.9-0.5-1.4-0.5c-0.2,0-0.5,0-0.7,0.1c0.1-0.1,0.1-0.2,0.2-0.3c0.2-0.3,0.4-0.6,0.5-1h0.3   c0.1,0,0.1,0,0.2-0.1c0,0,0.1-0.1,0.1-0.2v-1c0-0.1-0.1-0.2-0.2-0.2h-0.9c0-0.3-0.2-0.6-0.4-0.9c-0.3-0.3-0.7-0.6-1.3-0.6v-0.6h0.6   c0,0,0.1,0,0.2-0.1c0,0,0-0.1,0-0.1v-1c0-0.1,0-0.1,0-0.2c0,0-0.1-0.1-0.2-0.1h-0.7V253c0-0.1,0-0.1-0.1-0.2c0,0-0.1-0.1-0.2-0.1   h-1.3c0,0-0.1,0-0.2,0.1c0,0-0.1,0.1-0.1,0.2v0.7h-0.6c0,0-0.1,0-0.2,0.1c0,0-0.1,0.1-0.1,0.2v1c0,0.1,0,0.1,0.1,0.2   c0,0,0.1,0.1,0.2,0.1h0.6v0.6c-0.5,0.1-0.9,0.3-1.2,0.6c-0.3,0.3-0.4,0.6-0.5,0.9h-0.9c-0.1,0-0.2,0.1-0.2,0.2v1   c0,0.1,0,0.1,0.1,0.2c0,0,0.1,0.1,0.2,0.1h0.3c0.1,0.4,0.3,0.6,0.5,1l0,0c0.1,0.1,0.2,0.2,0.2,0.3c-0.2,0-0.4-0.1-0.7-0.1   c-0.5,0-1,0.2-1.4,0.5c-0.4,0.3-0.7,0.9-0.7,1.7v0.1l-1.2-1.1c-0.1-0.1-0.2-0.1-0.3,0l-2.6,2.8c0-0.2-0.1-0.3-0.1-0.3l0,0   c-0.1-0.2-0.2-0.4-0.4-0.4c-0.2-0.1-0.3-0.1-0.5-0.1c-0.1,0-0.2,0-0.2,0c-0.4,0-0.9,0.1-1.6,0.3l0,0c-0.1,0-0.1,0-0.1,0   c-0.1,0-0.2,0-0.2-0.1c-0.2-0.3-0.5-0.5-0.8-0.5c-0.1,0-0.3,0-0.4,0.1c-0.3,0.2-0.5,0.5-0.5,0.8c0,0.1,0,0.3,0.1,0.4l0,0.1   c0,0.1,0,0.2-0.2,0.3l0,0c-0.5,0.3-0.9,0.7-1.2,1c-0.1,0.1-0.2,0.2-0.3,0.3c0,0.1-0.1,0.1-0.1,0.2L312.7,265.9z M321,265.9   c0-0.1,0.1-0.1,0.1-0.2c0.2-0.3,0.5-0.5,0.8-0.6c0.1,0,0.2,0,0.2,0c0.4,0,0.7,0.2,1,0.6c0.1,0.1,0.1,0.2,0.2,0.2h0.2   c-0.1-0.1-0.2-0.3-0.2-0.4c-0.3-0.4-0.7-0.6-1.1-0.6c-0.1,0-0.2,0-0.3,0c-0.4,0.1-0.7,0.4-0.9,0.7c-0.1,0.1-0.1,0.2-0.2,0.3H321z    M326.1,265.9l0.2-0.1c0,0,0,0,0,0.1h0.3c0-0.1-0.1-0.2-0.2-0.2l-0.1,0l-0.5,0.2c0,0-0.1,0.1-0.1,0.1H326.1z M327.3,265.9   c0,0-0.1-0.1-0.2-0.2c-0.3-0.3-0.4-0.5-0.5-0.9c-0.1-0.3-0.1-0.4-0.1-0.7c0.2,0,0.3-0.1,0.5-0.2c0.2-0.1,0.3-0.2,0.4-0.4   c0.2,0,0.4,0.1,0.6,0.1h0c0.2,0,0.3-0.1,0.5-0.1c0.1,0.2,0.2,0.3,0.4,0.4c0.2,0.1,0.3,0.2,0.5,0.2c0,0.3,0,0.4-0.1,0.7   c-0.1,0.4-0.3,0.6-0.5,0.9c0,0.1-0.1,0.1-0.1,0.2h0.3c0,0,0,0,0-0.1c0.3-0.3,0.4-0.6,0.6-1c0.1-0.3,0.1-0.5,0.1-0.8v0   c0,0,0-0.1-0.1-0.1c-0.2,0-0.3-0.1-0.5-0.2c-0.2-0.1-0.3-0.2-0.4-0.4l-0.1,0c-0.2,0-0.3,0.1-0.6,0.1c-0.2,0-0.4-0.1-0.6-0.1l-0.1,0   c-0.1,0.2-0.2,0.3-0.4,0.4c-0.2,0.1-0.3,0.2-0.5,0.2c0,0-0.1,0-0.1,0.1v0c0,0.3,0,0.5,0.1,0.8c0.1,0.4,0.3,0.6,0.6,1c0,0,0,0,0,0   L327.3,265.9z M329.8,265.9C329.8,265.9,329.8,265.9,329.8,265.9h0.2h0.4c0,0,0-0.1-0.1-0.1l-0.5-0.2l-0.1,0   c-0.1,0.1-0.1,0.2-0.2,0.2H329.8z M326.9,261.6h-0.1C326.9,261.6,326.9,261.6,326.9,261.6 M337.3,264.2c0,0.3-0.1,0.7-0.3,1.1   c-0.1,0.2-0.2,0.3-0.3,0.4c0,0,0,0,0,0l-0.2-1.1l0,0c0,0-0.1-0.1-0.1-0.1c0,0-0.1-0.1-0.2-0.1c-0.1,0-0.2,0-0.2,0   c0-0.1,0.1-0.2,0.1-0.3l0,0c0-0.1,0-0.2,0-0.3c0,0,0-0.1,0-0.1l0.2-0.1l0,0l0,0c0,0,0.2-0.1,0.2-0.1l0,0c0.1,0,0.1,0,0.2,0.1   c0,0,0.1,0.1,0.1,0.2v0.1v0l-0.1,0.2l0,0l0.3,0.6L337.3,264.2z M330.6,259.7c-0.1,0.2-0.2,0.3-0.3,0.4v0l0,0   c-0.1,0.1-0.2,0.2-0.2,0.2c-0.1,0.1-0.2,0.2-0.3,0.2c-0.3,0.2-0.5,0.5-0.6,0.8c0,0,0,0,0,0h-2.1c0,0,0,0,0,0l0,0l0,0c0,0,0,0,0-0.1   c-0.1-0.3-0.3-0.5-0.5-0.7c-0.2-0.3-0.4-0.4-0.6-0.7c-0.1-0.1-0.2-0.2-0.3-0.4c-0.3-0.4-0.4-0.6-0.5-1h0.5c0.1,0.5,0.2,0.9,0.5,1.3   c0.6,0.8,1.4,1,1.7,1.1h0h0c0.3-0.1,1.1-0.3,1.7-1.1c0.3-0.4,0.5-0.8,0.5-1.3h0.5c-0.1,0.5-0.2,0.6-0.5,1c-0.1,0.2-0.2,0.2-0.3,0.4   c-0.3,0.3-0.5,0.5-0.7,0.8c-0.2,0.2-0.3,0.4-0.3,0.6c0,0,0,0,0,0.1h-1h1.1c0,0,0,0,0,0c0.1-0.3,0.3-0.6,0.6-0.8   c0.1-0.1,0.2-0.2,0.3-0.2c0.1-0.1,0.2-0.1,0.2-0.2l0,0v0l0,0C330.5,259.9,330.5,259.8,330.6,259.7L330.6,259.7z M327,261.4   C327,261.4,327,261.4,327,261.4C327,261.4,327,261.4,327,261.4C327,261.4,327,261.4,327,261.4C327,261.4,327,261.4,327,261.4    M326,258.5h4.2c-0.1,0.5-0.2,0.8-0.5,1.1c-0.6,0.7-1.3,0.9-1.6,1c-0.3-0.1-1-0.3-1.6-1l0,0C326.2,259.3,326.1,259,326,258.5    M331.1,258.5L331.1,258.5c0,0.1,0,0.2,0,0.2c-0.1,0.3-0.2,0.6-0.4,1l0,0c0.2-0.3,0.3-0.6,0.4-1   C331.1,258.6,331.1,258.6,331.1,258.5L331.1,258.5L331.1,258.5C331.1,258.5,331.1,258.5,331.1,258.5 M326.4,256.6   c0.3-0.3,0.7-0.5,1.2-0.5h0.1v-1.4h-0.8v-0.5h0.8v-0.8h0.8v0.8h0.8v0.5h-0.8v1.4h0.1c0.5,0,0.9,0.2,1.2,0.5   c0.3,0.2,0.4,0.6,0.4,0.9h-4.2C326,257.2,326.1,256.9,326.4,256.6 M324.8,257.7h6.5v0.6h-6.5V257.7z M325.2,258.5L325.2,258.5   c0.1,0.4,0.2,0.7,0.5,1.1c0.1,0.2,0.2,0.2,0.3,0.4c0,0,0,0,0,0l0,0c0.2,0.1,0.3,0.2,0.4,0.3c0.2,0.2,0.3,0.3,0.4,0.5   c0.1,0.1,0.1,0.2,0.2,0.3c0,0,0,0,0,0c0-0.1-0.1-0.2-0.1-0.2c-0.1-0.2-0.3-0.4-0.4-0.5c-0.1-0.1-0.2-0.2-0.4-0.3l0,0c0,0,0,0,0,0   c-0.1-0.1-0.2-0.2-0.3-0.4C325.4,259.1,325.3,258.9,325.2,258.5 M326.9,261.6L326.9,261.6L326.9,261.6z M318.8,264.5l2.8-2.9   l1.4,1.2l-0.6,0.7l-0.3-0.3l-0.1-0.1l-0.9,1l0.3,0.3l-0.3,0.3c-0.4-0.4-0.6-0.6-0.6-0.6l-0.1-0.1l-1.4,1.5   c-0.1-0.3-0.2-0.6-0.2-0.9L318.8,264.5C318.7,264.5,318.8,264.5,318.8,264.5 M324,265.6c0,0,0.1,0.1,0.1,0l0.5-0.2l0.1-0.1   c0-0.1,0-0.2,0.1-0.3c0.1-0.1,0.2-0.1,0.4-0.1c0.1,0,0.2,0,0.2,0.1c0.1,0.1,0.1,0.2,0.2,0.2l0,0.1h0.1l0.4-0.2c0,0,0.1-0.1,0-0.1   c-0.1-0.2-0.1-0.2-0.1-0.4c0-0.2,0-0.3,0-0.4v-0.1l-0.1-0.1c-0.2-0.1-0.2-0.1-0.4-0.2c-0.2-0.1-0.2-0.2-0.3-0.3l-0.2,0l0,0.2   c0.1,0.2,0.2,0.2,0.4,0.3l0,0c0.1,0.1,0.2,0.2,0.3,0.2v0c0,0.2,0,0.3,0,0.4c0,0.2,0.1,0.2,0.1,0.4l-0.2,0.1c0-0.1-0.1-0.1-0.2-0.2   c-0.1-0.1-0.2-0.2-0.3-0.2c-0.2,0-0.4,0.1-0.5,0.2s-0.2,0.2-0.2,0.3l-0.4,0.2c-0.1-0.1-0.2-0.3-0.3-0.4c-0.2-0.2-0.3-0.4-0.6-0.6   l1.4-1.6v-0.1c-0.1-0.1-0.1-0.2-0.2-0.3c-0.1-0.2-0.1-0.2-0.1-0.3l0,0V262c0-0.1,0-0.2,0.1-0.3c0.1-0.2,0.1-0.2,0.3-0.3   s0.3-0.2,0.5-0.2l0,0c0.2,0,0.3,0,0.4,0.1c0.1,0,0.2,0.1,0.2,0.2c0,0.1,0,0.1,0,0.2c0,0.1,0,0.2-0.1,0.2l-0.3,0.3   c-0.1,0.1-0.2,0.2-0.2,0.3v0c0,0.2,0,0.3,0.1,0.4c0.1,0.1,0.2,0.2,0.3,0.3c0.1,0,0.2,0.1,0.3,0.1h0c0.1,0,0.2,0,0.3,0   c0.2,0,0.3-0.1,0.3-0.3c0.1-0.1,0.2-0.3,0.2-0.4h2.2c0,0.2,0,0.3,0.2,0.4c0.1,0.1,0.2,0.2,0.3,0.3c0.1,0,0.2,0,0.3,0h0.1   c0.1,0,0.2,0,0.3-0.1c0.2-0.1,0.2-0.2,0.3-0.3c0.1-0.1,0.1-0.2,0.1-0.4v0c0-0.1-0.1-0.2-0.2-0.3l0,0l-0.3-0.3   c-0.1-0.1-0.1-0.2-0.1-0.3c0,0,0-0.1,0-0.2c0-0.1,0.1-0.2,0.2-0.2c0.1,0,0.3-0.1,0.4-0.1h0c0.2,0,0.3,0,0.5,0.2   c0.1,0.1,0.2,0.2,0.2,0.3c0,0.1,0.1,0.2,0.1,0.3v0.1l0,0c0,0.2-0.1,0.2-0.1,0.4c-0.1,0.2-0.1,0.2-0.2,0.3v0.1l1.4,1.6   c-0.2,0.2-0.4,0.3-0.6,0.6c-0.1,0.1-0.2,0.3-0.3,0.4l-0.3-0.2c0-0.1-0.1-0.3-0.2-0.3c-0.1-0.1-0.3-0.2-0.5-0.2   c-0.2,0-0.3,0.1-0.3,0.2c-0.1,0.1-0.1,0.1-0.2,0.2l-0.2-0.1c0-0.1,0.1-0.2,0.1-0.3c0-0.2,0-0.3,0-0.5v0c0.1-0.1,0.2-0.1,0.3-0.2   c0.2-0.1,0.3-0.2,0.4-0.3v-0.2l-0.1,0c-0.1,0.2-0.2,0.2-0.3,0.3c-0.1,0.1-0.2,0.2-0.3,0.2l-0.1,0.1v0.1c0,0.2,0,0.2,0,0.4   c0,0.2-0.1,0.3-0.1,0.4c0,0,0,0.1,0.1,0.1l0.4,0.2h0.1l0-0.1c0-0.1,0.1-0.2,0.2-0.2c0.1-0.1,0.2-0.1,0.2-0.1c0.2,0,0.3,0,0.4,0.1   c0.1,0.1,0.1,0.2,0.1,0.3l0,0.1l0.5,0.2c0,0,0.1,0,0.1,0c0,0,0-0.1,0.1-0.2c0.1-0.1,0.1-0.2,0.2-0.3c0.2-0.3,0.3-0.4,0.6-0.6l0-0.1   l0-0.1l-1.4-1.6c0.1-0.1,0.1-0.2,0.2-0.3c0.1-0.1,0.1-0.2,0.2-0.4v-0.1c0-0.1,0-0.2-0.1-0.3c-0.1-0.2-0.2-0.3-0.3-0.4   c-0.2-0.1-0.4-0.2-0.6-0.2h0c-0.2,0-0.3,0-0.5,0.1c-0.2,0.1-0.3,0.2-0.3,0.3c0,0.1,0,0.2,0,0.2c0,0.1,0,0.2,0.1,0.4l0,0l0.3,0.3   l0,0c0.1,0.1,0.1,0.1,0.1,0.2v0c0,0.1,0,0.2-0.1,0.3l0,0c-0.1,0.1-0.1,0.2-0.2,0.2l0,0c-0.1,0-0.2,0.1-0.3,0.1h-0.1   c-0.1,0-0.1,0-0.2,0l0,0c-0.1,0-0.2-0.1-0.3-0.2l0,0c-0.1-0.1-0.1-0.2-0.1-0.3v-0.1l0-0.1l-0.1,0h-2.4l-0.1,0l0,0.1v0   c0,0.1,0,0.2-0.1,0.3l0,0c-0.1,0.1-0.1,0.1-0.3,0.2c-0.1,0-0.1,0-0.2,0h0c-0.1,0-0.2,0-0.3-0.1l0,0c-0.1-0.1-0.2-0.1-0.2-0.2   c-0.1-0.1-0.1-0.2-0.1-0.3v0c0-0.1,0-0.2,0.1-0.2l0,0l0.3-0.3l0,0c0.1-0.1,0.1-0.2,0.1-0.4c0-0.1,0-0.2,0-0.2   c-0.1-0.2-0.2-0.3-0.3-0.3s-0.3-0.1-0.5-0.1l0,0c-0.2,0-0.4,0-0.6,0.2c-0.2,0.1-0.2,0.2-0.3,0.4c0,0.1-0.1,0.2-0.1,0.3v0.1   c0,0.2,0.1,0.3,0.1,0.4c0.1,0.1,0.1,0.2,0.2,0.3l-1.4,1.6l0,0.1l0,0.1c0.3,0.2,0.4,0.3,0.6,0.6l0,0c0.1,0.1,0.1,0.2,0.2,0.3   S324,265.6,324,265.6 M334.7,262l-0.2,0.2h0.3L334.7,262z"></path>
</g>
</svg>
